<svg width="879" height="695" viewBox="0 0 879 695" fill="none" xmlns="http://www.w3.org/2000/svg">
<ellipse cx="439.5" cy="651" rx="439.5" ry="44" fill="#C4C4C4"/>
<g opacity="0.7">
<path opacity="0.7" d="M724.532 658H158.391L162.291 235.265L324.202 192.541H553.139L720.632 222.808L724.532 658Z" fill="url(#paint0_linear)"/>
</g>
<path d="M716.708 652.671H166.214L170.138 240.594L324.74 197.893H555.918L712.785 228.137L716.708 652.671Z" fill="#E4E4E4"/>
<g opacity="0.7">
<path opacity="0.7" d="M377.239 10.3772H335.926V91.9698H377.239V10.3772Z" fill="url(#paint1_linear)"/>
</g>
<g opacity="0.7">
<path opacity="0.7" d="M335.927 261.723V173.539H156.477L126 261.723V270.768H337.048V261.723H335.927Z" fill="url(#paint2_linear)"/>
</g>
<path d="M335.927 261.84H128.242L158.391 174.661H335.927V261.84Z" fill="#1F2E35"/>
<path opacity="0.1" d="M335.927 261.84H128.242L158.391 174.661H335.927V261.84Z" fill="black"/>
<path d="M337.071 261.84H128.242V270.791H337.071V261.84Z" fill="#1F2E35"/>
<g opacity="0.7">
<path opacity="0.7" d="M722.453 174.661H542.536V263.85H541.392V273.012H753V263.85L722.453 174.661Z" fill="url(#paint3_linear)"/>
</g>
<path d="M542.514 264.06H750.222L720.072 176.905H542.514V264.06Z" fill="#1F2E35"/>
<path opacity="0.1" d="M542.514 264.06H750.222L720.072 176.905H542.514V264.06Z" fill="black"/>
<path d="M541.393 273.012H750.222V264.06H541.393V273.012Z" fill="#1F2E35"/>
<path opacity="0.5" d="M296.832 500.424H184.057V570.821H296.832V500.424Z" fill="#1F2E35"/>
<path opacity="0.1" d="M303.558 565.797H177.378V578.09H303.558V565.797Z" fill="black"/>
<path d="M303.558 564.698H177.378V576.992H303.558V564.698Z" fill="#535461"/>
<g opacity="0.1">
<path opacity="0.1" d="M296.832 500.424H184.057V528.354H296.832V500.424Z" fill="black"/>
</g>
<path opacity="0.5" d="M695.504 500.424H582.729V570.821H695.504V500.424Z" fill="#1F2E35"/>
<path opacity="0.1" d="M702.206 565.797H576.026V578.09H702.206V565.797Z" fill="black"/>
<path d="M702.206 564.698H576.026V576.992H702.206V564.698Z" fill="#535461"/>
<g opacity="0.1">
<path opacity="0.1" d="M695.504 500.424H582.729V528.354H695.504V500.424Z" fill="black"/>
</g>
<path opacity="0.5" d="M695.504 336.14H582.729V406.538H695.504V336.14Z" fill="#1F2E35"/>
<path opacity="0.1" d="M702.206 401.536H576.026V413.83H702.206V401.536Z" fill="black"/>
<path d="M702.206 400.414H576.026V412.708H702.206V400.414Z" fill="#535461"/>
<g opacity="0.1">
<path opacity="0.1" d="M695.504 336.14H582.729V364.07H695.504V336.14Z" fill="black"/>
</g>
<path opacity="0.5" d="M300.195 336.14H187.42V406.538H300.195V336.14Z" fill="#1F2E35"/>
<path opacity="0.1" d="M306.897 401.536H180.717V413.83H306.897V401.536Z" fill="black"/>
<path d="M306.897 400.414H180.717V412.708H306.897V400.414Z" fill="#535461"/>
<g opacity="0.1">
<path opacity="0.1" d="M300.195 336.14H187.42V364.07H300.195V336.14Z" fill="black"/>
</g>
<g opacity="0.7">
<path opacity="0.7" d="M577.311 127.917L439.594 21.3155L306.267 127.846L295.805 114.758L439.43 0L587.563 114.664L577.311 127.917Z" fill="url(#paint4_linear)"/>
</g>
<path opacity="0.1" d="M317.5 270.768H168.993V272.451H317.5V270.768Z" fill="black"/>
<path opacity="0.1" d="M713.93 273.012H563.742V274.695H713.93V273.012Z" fill="black"/>
<path d="M376.141 11.4993H337.047V91.9701H376.141V11.4993Z" fill="#535461"/>
<g opacity="0.7">
<path opacity="0.7" d="M564.302 654.658H314.161V113.659L440.318 108.728L564.302 113.659V654.658Z" fill="url(#paint5_linear)"/>
</g>
<path d="M560.94 654.658H317.501V111.509L439.22 19.8898L563.182 114.875L560.94 654.658Z" fill="white"/>
<path d="M469.93 551.843H408.509V654.658H469.93V551.843Z" fill="#535461"/>
<path opacity="0.1" d="M502.322 459.639H376.141V471.933H502.322V459.639Z" fill="black"/>
<path opacity="0.5" d="M495.62 394.267H382.844V464.664H495.62V394.267Z" fill="#1F2E35"/>
<path d="M502.322 458.517H376.141V470.811H502.322V458.517Z" fill="#535461"/>
<g opacity="0.1">
<path opacity="0.1" d="M495.62 394.267H382.844V422.197H495.62V394.267Z" fill="black"/>
</g>
<path opacity="0.5" d="M495.62 256.254H382.844V326.651H495.62V256.254Z" fill="#1F2E35"/>
<path d="M502.322 320.504H376.141V332.798H502.322V320.504Z" fill="#535461"/>
<g opacity="0.1">
<path opacity="0.1" d="M495.62 256.254H382.844V284.184H495.62V256.254Z" fill="black"/>
</g>
<path opacity="0.5" d="M495.62 118.217H382.844V188.615H495.62V118.217Z" fill="#1F2E35"/>
<path d="M502.322 182.491H376.141V194.785H502.322V182.491Z" fill="#535461"/>
<g opacity="0.1">
<path opacity="0.1" d="M495.62 118.217H382.844V146.147H495.62V118.217Z" fill="black"/>
</g>
<path d="M577.311 131.843L439.594 25.2188L306.267 131.75L295.805 118.661L439.43 3.90327L587.563 118.568L577.311 131.843Z" fill="#1F2E35"/>
<path d="M461.008 607.703C463.472 607.703 465.469 605.704 465.469 603.239C465.469 600.773 463.472 598.774 461.008 598.774C458.545 598.774 456.548 600.773 456.548 603.239C456.548 605.704 458.545 607.703 461.008 607.703Z" fill="#E0E0E0"/>
<defs>
<linearGradient id="paint0_linear" x1="416419" y1="131233" x2="416419" y2="38537.1" gradientUnits="userSpaceOnUse">
<stop stop-color="#808080" stop-opacity="0.25"/>
<stop offset="0.54" stop-color="#808080" stop-opacity="0.12"/>
<stop offset="1" stop-color="#808080" stop-opacity="0.1"/>
</linearGradient>
<linearGradient id="paint1_linear" x1="29210.2" y1="3221.05" x2="29210.2" y2="372.648" gradientUnits="userSpaceOnUse">
<stop stop-color="#808080" stop-opacity="0.25"/>
<stop offset="0.54" stop-color="#808080" stop-opacity="0.12"/>
<stop offset="1" stop-color="#808080" stop-opacity="0.1"/>
</linearGradient>
<linearGradient id="paint2_linear" x1="136330" y1="11437.5" x2="136330" y2="7392.77" gradientUnits="userSpaceOnUse">
<stop stop-color="#808080" stop-opacity="0.25"/>
<stop offset="0.54" stop-color="#808080" stop-opacity="0.12"/>
<stop offset="1" stop-color="#808080" stop-opacity="0.1"/>
</linearGradient>
<linearGradient id="paint3_linear" x1="174771" y1="11663" x2="174771" y2="7524.4" gradientUnits="userSpaceOnUse">
<stop stop-color="#808080" stop-opacity="0.25"/>
<stop offset="0.54" stop-color="#808080" stop-opacity="0.12"/>
<stop offset="1" stop-color="#808080" stop-opacity="0.1"/>
</linearGradient>
<linearGradient id="paint4_linear" x1="214843" y1="7000.87" x2="214843" y2="0" gradientUnits="userSpaceOnUse">
<stop stop-color="#808080" stop-opacity="0.25"/>
<stop offset="0.54" stop-color="#808080" stop-opacity="0.12"/>
<stop offset="1" stop-color="#808080" stop-opacity="0.1"/>
</linearGradient>
<linearGradient id="paint5_linear" x1="183993" y1="153024" x2="183993" y2="25505.4" gradientUnits="userSpaceOnUse">
<stop stop-color="#808080" stop-opacity="0.25"/>
<stop offset="0.54" stop-color="#808080" stop-opacity="0.12"/>
<stop offset="1" stop-color="#808080" stop-opacity="0.1"/>
</linearGradient>
</defs>
</svg>
