<svg width="879" height="813" viewBox="0 0 879 813" fill="none" xmlns="http://www.w3.org/2000/svg">
<path d="M374 5C374 3.34315 375.343 2 377 2H409C410.657 2 412 3.34315 412 5V169C412 170.657 410.657 172 409 172H377C375.343 172 374 170.657 374 169V5Z" fill="#CCCCCC"/>
<ellipse cx="439.5" cy="769" rx="439.5" ry="44" fill="#C4C4C4"/>
<rect x="196" y="224" width="486" height="544" rx="10" fill="white"/>
<rect x="196" y="224" width="486" height="544" rx="10" fill="white"/>
<rect x="341" y="46" width="196" height="170" rx="11" fill="#E4E4E4"/>
<rect x="341" y="64" width="196" height="152" fill="#E4E4E4"/>
<path d="M536.5 166H341.5V53C341.503 50.6139 342.452 48.3263 344.139 46.6391C345.826 44.9518 348.114 44.0027 350.5 44H527.5C529.886 44.0027 532.174 44.9518 533.861 46.6391C535.548 48.3263 536.497 50.6139 536.5 53V166ZM343.5 164H534.5V53C534.498 51.1441 533.76 49.3649 532.447 48.0526C531.135 46.7402 529.356 46.0021 527.5 46H350.5C348.644 46.0021 346.865 46.7402 345.553 48.0526C344.24 49.3649 343.502 51.1441 343.5 53V164Z" fill="#3F3D56"/>
<path d="M413.5 46H372.5V5C372.502 3.67438 373.029 2.40349 373.966 1.46614C374.903 0.528787 376.174 0.00151655 377.5 0H408.5C409.826 0.00151655 411.096 0.528787 412.034 1.46614C412.971 2.40349 413.498 3.67438 413.5 5V46ZM374.5 44H411.5V5C411.499 4.20462 411.183 3.44206 410.62 2.87964C410.058 2.31722 409.295 2.00087 408.5 2H377.5C376.705 2.00087 375.942 2.31722 375.38 2.87964C374.817 3.44206 374.501 4.20462 374.5 5V44Z" fill="#3F3D56"/>
<path d="M363.652 349H289.909C288.356 348.998 286.867 348.38 285.769 347.282C284.67 346.184 284.053 344.695 284.051 343.142V303.858C284.053 302.305 284.67 300.816 285.769 299.718C286.867 298.62 288.356 298.002 289.909 298H363.652C365.205 298.002 366.694 298.619 367.793 299.718C368.891 300.816 369.508 302.305 369.51 303.858V343.142C369.508 344.695 368.891 346.184 367.793 347.282C366.694 348.381 365.205 348.998 363.652 349Z" fill="#1F2E35"/>
<path d="M475.872 349H402.128C400.575 348.998 399.086 348.38 397.988 347.282C396.89 346.184 396.272 344.695 396.27 343.142V303.858C396.272 302.305 396.89 300.816 397.988 299.718C399.086 298.62 400.575 298.002 402.128 298H475.872C477.425 298.002 478.914 298.619 480.012 299.718C481.11 300.816 481.728 302.305 481.73 303.858V343.142C481.728 344.695 481.11 346.184 480.012 347.282C478.914 348.38 477.425 348.998 475.872 349Z" fill="#1F2E35"/>
<path d="M588.091 349H514.348C512.795 348.998 511.306 348.38 510.208 347.282C509.109 346.184 508.492 344.695 508.49 343.142V303.858C508.492 302.305 509.109 300.816 510.208 299.718C511.306 298.62 512.795 298.002 514.348 298H588.091C589.644 298.002 591.133 298.619 592.232 299.718C593.33 300.816 593.948 302.305 593.949 303.858V343.142C593.948 344.695 593.33 346.184 592.232 347.282C591.133 348.381 589.644 348.998 588.091 349Z" fill="#1F2E35"/>
<path d="M363.652 480H289.909C288.356 479.998 286.867 479.381 285.769 478.282C284.67 477.184 284.053 475.695 284.051 474.142V434.858C284.053 433.305 284.67 431.816 285.769 430.718C286.867 429.62 288.356 429.002 289.909 429H363.652C365.205 429.002 366.694 429.619 367.793 430.718C368.891 431.816 369.508 433.305 369.51 434.858V474.142C369.508 475.695 368.891 477.184 367.793 478.282C366.694 479.381 365.205 479.998 363.652 480Z" fill="#1F2E35"/>
<path d="M475.872 480H402.128C400.575 479.998 399.086 479.381 397.988 478.282C396.89 477.184 396.272 475.695 396.27 474.142V434.858C396.272 433.305 396.89 431.816 397.988 430.718C399.086 429.62 400.575 429.002 402.128 429H475.872C477.425 429.002 478.914 429.619 480.012 430.718C481.11 431.816 481.728 433.305 481.73 434.858V474.142C481.728 475.695 481.11 477.184 480.012 478.282C478.914 479.381 477.425 479.998 475.872 480Z" fill="#1F2E35"/>
<path d="M588.091 480H514.348C512.795 479.998 511.306 479.381 510.208 478.282C509.109 477.184 508.492 475.695 508.49 474.142V434.858C508.492 433.305 509.109 431.816 510.208 430.718C511.306 429.62 512.795 429.002 514.348 429H588.091C589.644 429.002 591.133 429.619 592.232 430.718C593.33 431.816 593.948 433.305 593.949 434.858V474.142C593.948 475.695 593.33 477.184 592.232 478.282C591.133 479.381 589.644 479.998 588.091 480Z" fill="#1F2E35"/>
<path d="M363.652 611H289.909C288.356 610.998 286.867 610.381 285.769 609.282C284.67 608.184 284.053 606.695 284.051 605.142V565.858C284.053 564.305 284.67 562.816 285.769 561.718C286.867 560.619 288.356 560.002 289.909 560H363.652C365.205 560.002 366.694 560.619 367.793 561.718C368.891 562.816 369.508 564.305 369.51 565.858V605.142C369.508 606.695 368.891 608.184 367.793 609.282C366.694 610.381 365.205 610.998 363.652 611Z" fill="#1F2E35"/>
<path d="M475.872 611H402.128C400.575 610.998 399.086 610.381 397.988 609.282C396.89 608.184 396.272 606.695 396.27 605.142V565.858C396.272 564.305 396.89 562.816 397.988 561.718C399.086 560.619 400.575 560.002 402.128 560H475.872C477.425 560.002 478.914 560.619 480.012 561.718C481.11 562.816 481.728 564.305 481.73 565.858V605.142C481.728 606.695 481.11 608.184 480.012 609.282C478.914 610.381 477.425 610.998 475.872 611Z" fill="#1F2E35"/>
<path d="M588.091 611H514.348C512.795 610.998 511.306 610.381 510.208 609.282C509.109 608.184 508.492 606.695 508.49 605.142V565.858C508.492 564.305 509.109 562.816 510.208 561.718C511.306 560.619 512.795 560.002 514.348 560H588.091C589.644 560.002 591.133 560.619 592.232 561.718C593.33 562.816 593.948 564.305 593.949 565.858V605.142C593.948 606.695 593.33 608.184 592.232 609.282C591.133 610.381 589.644 610.998 588.091 611Z" fill="#1F2E35"/>
<path d="M351.714 354.041H266.286C264.222 354.038 262.243 353.217 260.783 351.757C259.323 350.297 258.502 348.318 258.5 346.254V300.746C258.502 298.682 259.323 296.703 260.783 295.243C262.243 293.783 264.222 292.962 266.286 292.959H351.714C353.778 292.962 355.757 293.783 357.217 295.243C358.677 296.703 359.498 298.682 359.5 300.746V346.254C359.498 348.318 358.677 350.297 357.217 351.757C355.757 353.217 353.778 354.038 351.714 354.041ZM266.286 294.959C264.752 294.961 263.281 295.571 262.197 296.656C261.112 297.741 260.502 299.212 260.5 300.746V346.254C260.502 347.788 261.112 349.259 262.197 350.344C263.281 351.429 264.752 352.039 266.286 352.041H351.714C353.248 352.039 354.719 351.429 355.803 350.344C356.888 349.259 357.498 347.788 357.5 346.254V300.746C357.498 299.212 356.888 297.741 355.803 296.656C354.719 295.571 353.248 294.961 351.714 294.959H266.286Z" fill="#3F3D56"/>
<path d="M481.714 354.041H396.286C394.222 354.038 392.243 353.217 390.783 351.757C389.323 350.297 388.502 348.318 388.5 346.254V300.746C388.502 298.682 389.323 296.703 390.783 295.243C392.243 293.783 394.222 292.962 396.286 292.959H481.714C483.778 292.962 485.757 293.783 487.217 295.243C488.677 296.703 489.498 298.682 489.5 300.746V346.254C489.498 348.318 488.677 350.297 487.217 351.757C485.757 353.217 483.778 354.038 481.714 354.041ZM396.286 294.959C394.752 294.961 393.281 295.571 392.197 296.656C391.112 297.741 390.502 299.212 390.5 300.746V346.254C390.502 347.788 391.112 349.259 392.197 350.344C393.281 351.429 394.752 352.039 396.286 352.041H481.714C483.248 352.039 484.719 351.429 485.803 350.344C486.888 349.259 487.498 347.788 487.5 346.254V300.746C487.498 299.212 486.888 297.741 485.803 296.656C484.719 295.571 483.248 294.961 481.714 294.959H396.286Z" fill="#3F3D56"/>
<path d="M611.714 354.041H526.286C524.222 354.038 522.243 353.217 520.783 351.757C519.323 350.297 518.502 348.318 518.5 346.254V300.746C518.502 298.682 519.323 296.703 520.783 295.243C522.243 293.783 524.222 292.962 526.286 292.959H611.714C613.778 292.962 615.757 293.783 617.217 295.243C618.677 296.703 619.498 298.682 619.5 300.746V346.254C619.498 348.318 618.677 350.297 617.217 351.757C615.757 353.217 613.778 354.038 611.714 354.041ZM526.286 294.959C524.752 294.961 523.281 295.571 522.197 296.656C521.112 297.741 520.502 299.212 520.5 300.746V346.254C520.502 347.788 521.112 349.259 522.197 350.344C523.281 351.429 524.752 352.039 526.286 352.041H611.714C613.248 352.039 614.719 351.429 615.803 350.344C616.888 349.259 617.498 347.788 617.5 346.254V300.746C617.498 299.212 616.888 297.741 615.803 296.656C614.719 295.571 613.248 294.961 611.714 294.959H526.286Z" fill="#3F3D56"/>
<path d="M351.714 485.041H266.286C264.222 485.038 262.243 484.217 260.783 482.757C259.323 481.297 258.502 479.318 258.5 477.254V431.746C258.502 429.682 259.323 427.703 260.783 426.243C262.243 424.783 264.222 423.962 266.286 423.959H351.714C353.778 423.962 355.757 424.783 357.217 426.243C358.677 427.703 359.498 429.682 359.5 431.746V477.254C359.498 479.318 358.677 481.297 357.217 482.757C355.757 484.217 353.778 485.038 351.714 485.041ZM266.286 425.959C264.752 425.961 263.281 426.571 262.197 427.656C261.112 428.741 260.502 430.212 260.5 431.746V477.254C260.502 478.788 261.112 480.259 262.197 481.344C263.281 482.429 264.752 483.039 266.286 483.041H351.714C353.248 483.039 354.719 482.429 355.803 481.344C356.888 480.259 357.498 478.788 357.5 477.254V431.746C357.498 430.212 356.888 428.741 355.803 427.656C354.719 426.571 353.248 425.961 351.714 425.959H266.286Z" fill="#3F3D56"/>
<path d="M481.714 485.041H396.286C394.222 485.038 392.243 484.217 390.783 482.757C389.323 481.297 388.502 479.318 388.5 477.254V431.746C388.502 429.682 389.323 427.703 390.783 426.243C392.243 424.783 394.222 423.962 396.286 423.959H481.714C483.778 423.962 485.757 424.783 487.217 426.243C488.677 427.703 489.498 429.682 489.5 431.746V477.254C489.498 479.318 488.677 481.297 487.217 482.757C485.757 484.217 483.778 485.038 481.714 485.041ZM396.286 425.959C394.752 425.961 393.281 426.571 392.197 427.656C391.112 428.741 390.502 430.212 390.5 431.746V477.254C390.502 478.788 391.112 480.259 392.197 481.344C393.281 482.429 394.752 483.039 396.286 483.041H481.714C483.248 483.039 484.719 482.429 485.803 481.344C486.888 480.259 487.498 478.788 487.5 477.254V431.746C487.498 430.212 486.888 428.741 485.803 427.656C484.719 426.571 483.248 425.961 481.714 425.959H396.286Z" fill="#3F3D56"/>
<path d="M611.714 485.041H526.286C524.222 485.038 522.243 484.217 520.783 482.757C519.323 481.297 518.502 479.318 518.5 477.254V431.746C518.502 429.682 519.323 427.703 520.783 426.243C522.243 424.783 524.222 423.962 526.286 423.959H611.714C613.778 423.962 615.757 424.783 617.217 426.243C618.677 427.703 619.498 429.682 619.5 431.746V477.254C619.498 479.318 618.677 481.297 617.217 482.757C615.757 484.217 613.778 485.038 611.714 485.041ZM526.286 425.959C524.752 425.961 523.281 426.571 522.197 427.656C521.112 428.741 520.502 430.212 520.5 431.746V477.254C520.502 478.788 521.112 480.259 522.197 481.344C523.281 482.429 524.752 483.039 526.286 483.041H611.714C613.248 483.039 614.719 482.429 615.803 481.344C616.888 480.259 617.498 478.788 617.5 477.254V431.746C617.498 430.212 616.888 428.741 615.803 427.656C614.719 426.571 613.248 425.961 611.714 425.959H526.286Z" fill="#3F3D56"/>
<path d="M351.714 616.041H266.286C264.222 616.038 262.243 615.217 260.783 613.757C259.323 612.297 258.502 610.318 258.5 608.254V562.746C258.502 560.682 259.323 558.703 260.783 557.243C262.243 555.783 264.222 554.962 266.286 554.959H351.714C353.778 554.962 355.757 555.783 357.217 557.243C358.677 558.703 359.498 560.682 359.5 562.746V608.254C359.498 610.318 358.677 612.297 357.217 613.757C355.757 615.217 353.778 616.038 351.714 616.041ZM266.286 556.959C264.752 556.961 263.281 557.571 262.197 558.656C261.112 559.741 260.502 561.212 260.5 562.746V608.254C260.502 609.788 261.112 611.259 262.197 612.344C263.281 613.429 264.752 614.039 266.286 614.041H351.714C353.248 614.039 354.719 613.429 355.803 612.344C356.888 611.259 357.498 609.788 357.5 608.254V562.746C357.498 561.212 356.888 559.741 355.803 558.656C354.719 557.571 353.248 556.961 351.714 556.959H266.286Z" fill="#3F3D56"/>
<path d="M481.714 616.041H396.286C394.222 616.038 392.243 615.217 390.783 613.757C389.323 612.297 388.502 610.318 388.5 608.254V562.746C388.502 560.682 389.323 558.703 390.783 557.243C392.243 555.783 394.222 554.962 396.286 554.959H481.714C483.778 554.962 485.757 555.783 487.217 557.243C488.677 558.703 489.498 560.682 489.5 562.746V608.254C489.498 610.318 488.677 612.297 487.217 613.757C485.757 615.217 483.778 616.038 481.714 616.041ZM396.286 556.959C394.752 556.961 393.281 557.571 392.197 558.656C391.112 559.741 390.502 561.212 390.5 562.746V608.254C390.502 609.788 391.112 611.259 392.197 612.344C393.281 613.429 394.752 614.039 396.286 614.041H481.714C483.248 614.039 484.719 613.429 485.803 612.344C486.888 611.259 487.498 609.788 487.5 608.254V562.746C487.498 561.212 486.888 559.741 485.803 558.656C484.719 557.571 483.248 556.961 481.714 556.959H396.286Z" fill="#3F3D56"/>
<path d="M611.714 616.041H526.286C524.222 616.038 522.243 615.217 520.783 613.757C519.323 612.297 518.502 610.318 518.5 608.254V562.746C518.502 560.682 519.323 558.703 520.783 557.243C522.243 555.783 524.222 554.962 526.286 554.959H611.714C613.778 554.962 615.757 555.783 617.217 557.243C618.677 558.703 619.498 560.682 619.5 562.746V608.254C619.498 610.318 618.677 612.297 617.217 613.757C615.757 615.217 613.778 616.038 611.714 616.041ZM526.286 556.959C524.752 556.961 523.281 557.571 522.197 558.656C521.112 559.741 520.502 561.212 520.5 562.746V608.254C520.502 609.788 521.112 611.259 522.197 612.344C523.281 613.429 524.752 614.039 526.286 614.041H611.714C613.248 614.039 614.719 613.429 615.803 612.344C616.888 611.259 617.498 609.788 617.5 608.254V562.746C617.498 561.212 616.888 559.741 615.803 558.656C614.719 557.571 613.248 556.961 611.714 556.959H526.286Z" fill="#3F3D56"/>
<path d="M489.5 673.71C489.528 671.428 488.648 669.229 487.054 667.595C485.46 665.962 483.282 665.028 481 665H439V768.5H489.5V673.71Z" fill="#1F2E35"/>
<path d="M440 767.5H387.5V674C387.503 671.481 388.505 669.067 390.286 667.286C392.067 665.505 394.481 664.503 397 664.5H440V767.5ZM389.5 765.5H438V666.5H397C395.012 666.502 393.105 667.293 391.699 668.699C390.293 670.105 389.502 672.012 389.5 674V765.5Z" fill="#3F3D56"/>
<path d="M394 723C395.657 723 397 721.657 397 720C397 718.343 395.657 717 394 717C392.343 717 391 718.343 391 720C391 721.657 392.343 723 394 723Z" fill="#3F3D56"/>
<rect x="234" y="216" width="410" height="8" rx="4" fill="white"/>
<rect x="341" y="176" width="3" height="40" fill="#3F3D56"/>
<rect x="534" y="176" width="3" height="40" fill="#3F3D56"/>
<path d="M244.76 174L245.5 175.46C245.828 176.09 246 176.79 246 177.5V217H281V177.5C281 176.79 281.172 176.09 281.5 175.46L282.24 174H244.76ZM279 177.5V215H248V177.5C248.001 176.995 247.94 176.491 247.82 176H279.18C279.06 176.491 278.999 176.995 279 177.5ZM288.76 174L289.5 175.46C289.828 176.09 290 176.79 290 177.5V217H325V177.5C325 176.79 325.172 176.09 325.5 175.46L326.24 174H288.76ZM323 177.5V215H292V177.5C292.001 176.995 291.94 176.491 291.82 176H323.18C323.06 176.491 322.999 176.995 323 177.5ZM332.76 174L333.5 175.46C333.828 176.09 334 176.79 334 177.5V217H369V177.5C369 176.79 369.172 176.09 369.5 175.46L370.24 174H332.76ZM367 177.5V215H336V177.5C336.001 176.995 335.94 176.491 335.82 176H367.18C367.06 176.491 366.999 176.995 367 177.5ZM376.76 174L377.5 175.46C377.828 176.09 378 176.79 378 177.5V217H413V177.5C413 176.79 413.172 176.09 413.5 175.46L414.24 174H376.76ZM411 177.5V215H380V177.5C380.001 176.995 379.94 176.491 379.82 176H411.18C411.06 176.491 410.999 176.995 411 177.5ZM420.76 174L421.5 175.46C421.828 176.09 422 176.79 422 177.5V217H457V177.5C457 176.79 457.172 176.09 457.5 175.46L458.24 174H420.76ZM455 177.5V215H424V177.5C424.001 176.995 423.94 176.491 423.82 176H455.18C455.06 176.491 454.999 176.995 455 177.5ZM464.76 174L465.5 175.46C465.828 176.09 466 176.79 466 177.5V217H501V177.5C501 176.79 501.172 176.09 501.5 175.46L502.24 174H464.76ZM499 177.5V215H468V177.5C468.001 176.995 467.94 176.491 467.82 176H499.18C499.06 176.491 498.999 176.995 499 177.5ZM508.76 174L509.5 175.46C509.828 176.09 510 176.79 510 177.5V217H545V177.5C545 176.79 545.172 176.09 545.5 175.46L546.24 174H508.76ZM543 177.5V215H512V177.5C512.001 176.995 511.94 176.491 511.82 176H543.18C543.06 176.491 542.999 176.995 543 177.5ZM552.76 174L553.5 175.46C553.828 176.09 554 176.79 554 177.5V217H589V177.5C589 176.79 589.172 176.09 589.5 175.46L590.24 174H552.76ZM587 177.5V215H556V177.5C556.001 176.995 555.94 176.491 555.82 176H587.18C587.06 176.491 586.999 176.995 587 177.5ZM596.76 174L597.5 175.46C597.828 176.09 598 176.79 598 177.5V217H633V177.5C633 176.79 633.172 176.09 633.5 175.46L634.24 174H596.76ZM631 177.5V215H600V177.5C600.001 176.995 599.94 176.491 599.82 176H631.18C631.06 176.491 630.999 176.995 631 177.5ZM596.76 174L597.5 175.46C597.828 176.09 598 176.79 598 177.5V217H633V177.5C633 176.79 633.172 176.09 633.5 175.46L634.24 174H596.76ZM631 177.5V215H600V177.5C600.001 176.995 599.94 176.491 599.82 176H631.18C631.06 176.491 630.999 176.995 631 177.5ZM552.76 174L553.5 175.46C553.828 176.09 554 176.79 554 177.5V217H589V177.5C589 176.79 589.172 176.09 589.5 175.46L590.24 174H552.76ZM587 177.5V215H556V177.5C556.001 176.995 555.94 176.491 555.82 176H587.18C587.06 176.491 586.999 176.995 587 177.5ZM508.76 174L509.5 175.46C509.828 176.09 510 176.79 510 177.5V217H545V177.5C545 176.79 545.172 176.09 545.5 175.46L546.24 174H508.76ZM543 177.5V215H512V177.5C512.001 176.995 511.94 176.491 511.82 176H543.18C543.06 176.491 542.999 176.995 543 177.5ZM464.76 174L465.5 175.46C465.828 176.09 466 176.79 466 177.5V217H501V177.5C501 176.79 501.172 176.09 501.5 175.46L502.24 174H464.76ZM499 177.5V215H468V177.5C468.001 176.995 467.94 176.491 467.82 176H499.18C499.06 176.491 498.999 176.995 499 177.5ZM420.76 174L421.5 175.46C421.828 176.09 422 176.79 422 177.5V217H457V177.5C457 176.79 457.172 176.09 457.5 175.46L458.24 174H420.76ZM455 177.5V215H424V177.5C424.001 176.995 423.94 176.491 423.82 176H455.18C455.06 176.491 454.999 176.995 455 177.5ZM376.76 174L377.5 175.46C377.828 176.09 378 176.79 378 177.5V217H413V177.5C413 176.79 413.172 176.09 413.5 175.46L414.24 174H376.76ZM411 177.5V215H380V177.5C380.001 176.995 379.94 176.491 379.82 176H411.18C411.06 176.491 410.999 176.995 411 177.5ZM332.76 174L333.5 175.46C333.828 176.09 334 176.79 334 177.5V217H369V177.5C369 176.79 369.172 176.09 369.5 175.46L370.24 174H332.76ZM367 177.5V215H336V177.5C336.001 176.995 335.94 176.491 335.82 176H367.18C367.06 176.491 366.999 176.995 367 177.5ZM288.76 174L289.5 175.46C289.828 176.09 290 176.79 290 177.5V217H325V177.5C325 176.79 325.172 176.09 325.5 175.46L326.24 174H288.76ZM323 177.5V215H292V177.5C292.001 176.995 291.94 176.491 291.82 176H323.18C323.06 176.491 322.999 176.995 323 177.5ZM244.76 174L245.5 175.46C245.828 176.09 246 176.79 246 177.5V217H281V177.5C281 176.79 281.172 176.09 281.5 175.46L282.24 174H244.76ZM279 177.5V215H248V177.5C248.001 176.995 247.94 176.491 247.82 176H279.18C279.06 176.491 278.999 176.995 279 177.5ZM596.76 174L597.5 175.46C597.828 176.09 598 176.79 598 177.5V217H633V177.5C633 176.79 633.172 176.09 633.5 175.46L634.24 174H596.76ZM631 177.5V215H600V177.5C600.001 176.995 599.94 176.491 599.82 176H631.18C631.06 176.491 630.999 176.995 631 177.5ZM552.76 174L553.5 175.46C553.828 176.09 554 176.79 554 177.5V217H589V177.5C589 176.79 589.172 176.09 589.5 175.46L590.24 174H552.76ZM587 177.5V215H556V177.5C556.001 176.995 555.94 176.491 555.82 176H587.18C587.06 176.491 586.999 176.995 587 177.5ZM508.76 174L509.5 175.46C509.828 176.09 510 176.79 510 177.5V217H545V177.5C545 176.79 545.172 176.09 545.5 175.46L546.24 174H508.76ZM543 177.5V215H512V177.5C512.001 176.995 511.94 176.491 511.82 176H543.18C543.06 176.491 542.999 176.995 543 177.5ZM464.76 174L465.5 175.46C465.828 176.09 466 176.79 466 177.5V217H501V177.5C501 176.79 501.172 176.09 501.5 175.46L502.24 174H464.76ZM499 177.5V215H468V177.5C468.001 176.995 467.94 176.491 467.82 176H499.18C499.06 176.491 498.999 176.995 499 177.5ZM420.76 174L421.5 175.46C421.828 176.09 422 176.79 422 177.5V217H457V177.5C457 176.79 457.172 176.09 457.5 175.46L458.24 174H420.76ZM455 177.5V215H424V177.5C424.001 176.995 423.94 176.491 423.82 176H455.18C455.06 176.491 454.999 176.995 455 177.5ZM376.76 174L377.5 175.46C377.828 176.09 378 176.79 378 177.5V217H413V177.5C413 176.79 413.172 176.09 413.5 175.46L414.24 174H376.76ZM411 177.5V215H380V177.5C380.001 176.995 379.94 176.491 379.82 176H411.18C411.06 176.491 410.999 176.995 411 177.5ZM332.76 174L333.5 175.46C333.828 176.09 334 176.79 334 177.5V217H369V177.5C369 176.79 369.172 176.09 369.5 175.46L370.24 174H332.76ZM367 177.5V215H336V177.5C336.001 176.995 335.94 176.491 335.82 176H367.18C367.06 176.491 366.999 176.995 367 177.5ZM288.76 174L289.5 175.46C289.828 176.09 290 176.79 290 177.5V217H325V177.5C325 176.79 325.172 176.09 325.5 175.46L326.24 174H288.76ZM323 177.5V215H292V177.5C292.001 176.995 291.94 176.491 291.82 176H323.18C323.06 176.491 322.999 176.995 323 177.5ZM244.76 174L245.5 175.46C245.828 176.09 246 176.79 246 177.5V217H281V177.5C281 176.79 281.172 176.09 281.5 175.46L282.24 174H244.76ZM279 177.5V215H248V177.5C248.001 176.995 247.94 176.491 247.82 176H279.18C279.06 176.491 278.999 176.995 279 177.5ZM596.76 174L597.5 175.46C597.828 176.09 598 176.79 598 177.5V217H633V177.5C633 176.79 633.172 176.09 633.5 175.46L634.24 174H596.76ZM631 177.5V215H600V177.5C600.001 176.995 599.94 176.491 599.82 176H631.18C631.06 176.491 630.999 176.995 631 177.5ZM552.76 174L553.5 175.46C553.828 176.09 554 176.79 554 177.5V217H589V177.5C589 176.79 589.172 176.09 589.5 175.46L590.24 174H552.76ZM587 177.5V215H556V177.5C556.001 176.995 555.94 176.491 555.82 176H587.18C587.06 176.491 586.999 176.995 587 177.5ZM508.76 174L509.5 175.46C509.828 176.09 510 176.79 510 177.5V217H545V177.5C545 176.79 545.172 176.09 545.5 175.46L546.24 174H508.76ZM543 177.5V215H512V177.5C512.001 176.995 511.94 176.491 511.82 176H543.18C543.06 176.491 542.999 176.995 543 177.5ZM464.76 174L465.5 175.46C465.828 176.09 466 176.79 466 177.5V217H501V177.5C501 176.79 501.172 176.09 501.5 175.46L502.24 174H464.76ZM499 177.5V215H468V177.5C468.001 176.995 467.94 176.491 467.82 176H499.18C499.06 176.491 498.999 176.995 499 177.5ZM420.76 174L421.5 175.46C421.828 176.09 422 176.79 422 177.5V217H457V177.5C457 176.79 457.172 176.09 457.5 175.46L458.24 174H420.76ZM455 177.5V215H424V177.5C424.001 176.995 423.94 176.491 423.82 176H455.18C455.06 176.491 454.999 176.995 455 177.5ZM376.76 174L377.5 175.46C377.828 176.09 378 176.79 378 177.5V217H413V177.5C413 176.79 413.172 176.09 413.5 175.46L414.24 174H376.76ZM411 177.5V215H380V177.5C380.001 176.995 379.94 176.491 379.82 176H411.18C411.06 176.491 410.999 176.995 411 177.5ZM332.76 174L333.5 175.46C333.828 176.09 334 176.79 334 177.5V217H369V177.5C369 176.79 369.172 176.09 369.5 175.46L370.24 174H332.76ZM367 177.5V215H336V177.5C336.001 176.995 335.94 176.491 335.82 176H367.18C367.06 176.491 366.999 176.995 367 177.5ZM288.76 174L289.5 175.46C289.828 176.09 290 176.79 290 177.5V217H325V177.5C325 176.79 325.172 176.09 325.5 175.46L326.24 174H288.76ZM323 177.5V215H292V177.5C292.001 176.995 291.94 176.491 291.82 176H323.18C323.06 176.491 322.999 176.995 323 177.5ZM244.76 174L245.5 175.46C245.828 176.09 246 176.79 246 177.5V217H281V177.5C281 176.79 281.172 176.09 281.5 175.46L282.24 174H244.76ZM279 177.5V215H248V177.5C248.001 176.995 247.94 176.491 247.82 176H279.18C279.06 176.491 278.999 176.995 279 177.5ZM596.76 174L597.5 175.46C597.828 176.09 598 176.79 598 177.5V217H633V177.5C633 176.79 633.172 176.09 633.5 175.46L634.24 174H596.76ZM631 177.5V215H600V177.5C600.001 176.995 599.94 176.491 599.82 176H631.18C631.06 176.491 630.999 176.995 631 177.5ZM552.76 174L553.5 175.46C553.828 176.09 554 176.79 554 177.5V217H589V177.5C589 176.79 589.172 176.09 589.5 175.46L590.24 174H552.76ZM587 177.5V215H556V177.5C556.001 176.995 555.94 176.491 555.82 176H587.18C587.06 176.491 586.999 176.995 587 177.5ZM508.76 174L509.5 175.46C509.828 176.09 510 176.79 510 177.5V217H545V177.5C545 176.79 545.172 176.09 545.5 175.46L546.24 174H508.76ZM543 177.5V215H512V177.5C512.001 176.995 511.94 176.491 511.82 176H543.18C543.06 176.491 542.999 176.995 543 177.5ZM464.76 174L465.5 175.46C465.828 176.09 466 176.79 466 177.5V217H501V177.5C501 176.79 501.172 176.09 501.5 175.46L502.24 174H464.76ZM499 177.5V215H468V177.5C468.001 176.995 467.94 176.491 467.82 176H499.18C499.06 176.491 498.999 176.995 499 177.5ZM420.76 174L421.5 175.46C421.828 176.09 422 176.79 422 177.5V217H457V177.5C457 176.79 457.172 176.09 457.5 175.46L458.24 174H420.76ZM455 177.5V215H424V177.5C424.001 176.995 423.94 176.491 423.82 176H455.18C455.06 176.491 454.999 176.995 455 177.5ZM376.76 174L377.5 175.46C377.828 176.09 378 176.79 378 177.5V217H413V177.5C413 176.79 413.172 176.09 413.5 175.46L414.24 174H376.76ZM411 177.5V215H380V177.5C380.001 176.995 379.94 176.491 379.82 176H411.18C411.06 176.491 410.999 176.995 411 177.5ZM332.76 174L333.5 175.46C333.828 176.09 334 176.79 334 177.5V217H369V177.5C369 176.79 369.172 176.09 369.5 175.46L370.24 174H332.76ZM367 177.5V215H336V177.5C336.001 176.995 335.94 176.491 335.82 176H367.18C367.06 176.491 366.999 176.995 367 177.5ZM288.76 174L289.5 175.46C289.828 176.09 290 176.79 290 177.5V217H325V177.5C325 176.79 325.172 176.09 325.5 175.46L326.24 174H288.76ZM323 177.5V215H292V177.5C292.001 176.995 291.94 176.491 291.82 176H323.18C323.06 176.491 322.999 176.995 323 177.5ZM244.76 174L245.5 175.46C245.828 176.09 246 176.79 246 177.5V217H281V177.5C281 176.79 281.172 176.09 281.5 175.46L282.24 174H244.76ZM279 177.5V215H248V177.5C248.001 176.995 247.94 176.491 247.82 176H279.18C279.06 176.491 278.999 176.995 279 177.5ZM596.76 174L597.5 175.46C597.828 176.09 598 176.79 598 177.5V217H633V177.5C633 176.79 633.172 176.09 633.5 175.46L634.24 174H596.76ZM631 177.5V215H600V177.5C600.001 176.995 599.94 176.491 599.82 176H631.18C631.06 176.491 630.999 176.995 631 177.5ZM553.5 175.46C553.828 176.09 554 176.79 554 177.5V217H589V177.5C589 176.79 589.172 176.09 589.5 175.46L590.24 174H552.76L553.5 175.46ZM587.18 176C587.06 176.491 586.999 176.995 587 177.5V215H556V177.5C556.001 176.995 555.94 176.491 555.82 176H587.18ZM509.5 175.46C509.828 176.09 510 176.79 510 177.5V217H545V177.5C545 176.79 545.172 176.09 545.5 175.46L546.24 174H508.76L509.5 175.46ZM543.18 176C543.06 176.491 542.999 176.995 543 177.5V215H512V177.5C512.001 176.995 511.94 176.491 511.82 176H543.18ZM465.5 175.46C465.828 176.09 466 176.79 466 177.5V217H501V177.5C501 176.79 501.172 176.09 501.5 175.46L502.24 174H464.76L465.5 175.46ZM499.18 176C499.06 176.491 498.999 176.995 499 177.5V215H468V177.5C468.001 176.995 467.94 176.491 467.82 176H499.18ZM421.5 175.46C421.828 176.09 422 176.79 422 177.5V217H457V177.5C457 176.79 457.172 176.09 457.5 175.46L458.24 174H420.76L421.5 175.46ZM455.18 176C455.06 176.491 454.999 176.995 455 177.5V215H424V177.5C424.001 176.995 423.94 176.491 423.82 176H455.18ZM377.5 175.46C377.828 176.09 378 176.79 378 177.5V217H413V177.5C413 176.79 413.172 176.09 413.5 175.46L414.24 174H376.76L377.5 175.46ZM411.18 176C411.06 176.491 410.999 176.995 411 177.5V215H380V177.5C380.001 176.995 379.94 176.491 379.82 176H411.18ZM333.5 175.46C333.828 176.09 334 176.79 334 177.5V217H369V177.5C369 176.79 369.172 176.09 369.5 175.46L370.24 174H332.76L333.5 175.46ZM367.18 176C367.06 176.491 366.999 176.995 367 177.5V215H336V177.5C336.001 176.995 335.94 176.491 335.82 176H367.18ZM289.5 175.46C289.828 176.09 290 176.79 290 177.5V217H325V177.5C325 176.79 325.172 176.09 325.5 175.46L326.24 174H288.76L289.5 175.46ZM323.18 176C323.06 176.491 322.999 176.995 323 177.5V215H292V177.5C292.001 176.995 291.94 176.491 291.82 176H323.18ZM245.5 175.46C245.828 176.09 246 176.79 246 177.5V217H281V177.5C281 176.79 281.172 176.09 281.5 175.46L282.24 174H244.76L245.5 175.46ZM279.18 176C279.06 176.491 278.999 176.995 279 177.5V215H248V177.5C248.001 176.995 247.94 176.491 247.82 176H279.18ZM597.5 175.46C597.828 176.09 598 176.79 598 177.5V217H633V177.5C633 176.79 633.172 176.09 633.5 175.46L634.24 174H596.76L597.5 175.46ZM631.18 176C631.06 176.491 630.999 176.995 631 177.5V215H600V177.5C600.001 176.995 599.94 176.491 599.82 176H631.18ZM553.5 175.46C553.828 176.09 554 176.79 554 177.5V217H589V177.5C589 176.79 589.172 176.09 589.5 175.46L590.24 174H552.76L553.5 175.46ZM587.18 176C587.06 176.491 586.999 176.995 587 177.5V215H556V177.5C556.001 176.995 555.94 176.491 555.82 176H587.18ZM509.5 175.46C509.828 176.09 510 176.79 510 177.5V217H545V177.5C545 176.79 545.172 176.09 545.5 175.46L546.24 174H508.76L509.5 175.46ZM543.18 176C543.06 176.491 542.999 176.995 543 177.5V215H512V177.5C512.001 176.995 511.94 176.491 511.82 176H543.18ZM465.5 175.46C465.828 176.09 466 176.79 466 177.5V217H501V177.5C501 176.79 501.172 176.09 501.5 175.46L502.24 174H464.76L465.5 175.46ZM499.18 176C499.06 176.491 498.999 176.995 499 177.5V215H468V177.5C468.001 176.995 467.94 176.491 467.82 176H499.18ZM421.5 175.46C421.828 176.09 422 176.79 422 177.5V217H457V177.5C457 176.79 457.172 176.09 457.5 175.46L458.24 174H420.76L421.5 175.46ZM455.18 176C455.06 176.491 454.999 176.995 455 177.5V215H424V177.5C424.001 176.995 423.94 176.491 423.82 176H455.18ZM377.5 175.46C377.828 176.09 378 176.79 378 177.5V217H413V177.5C413 176.79 413.172 176.09 413.5 175.46L414.24 174H376.76L377.5 175.46ZM411.18 176C411.06 176.491 410.999 176.995 411 177.5V215H380V177.5C380.001 176.995 379.94 176.491 379.82 176H411.18ZM333.5 175.46C333.828 176.09 334 176.79 334 177.5V217H369V177.5C369 176.79 369.172 176.09 369.5 175.46L370.24 174H332.76L333.5 175.46ZM367.18 176C367.06 176.491 366.999 176.995 367 177.5V215H336V177.5C336.001 176.995 335.94 176.491 335.82 176H367.18ZM289.5 175.46C289.828 176.09 290 176.79 290 177.5V217H325V177.5C325 176.79 325.172 176.09 325.5 175.46L326.24 174H288.76L289.5 175.46ZM323.18 176C323.06 176.491 322.999 176.995 323 177.5V215H292V177.5C292.001 176.995 291.94 176.491 291.82 176H323.18ZM245.5 175.46C245.828 176.09 246 176.79 246 177.5V217H281V177.5C281 176.79 281.172 176.09 281.5 175.46L282.24 174H244.76L245.5 175.46ZM279.18 176C279.06 176.491 278.999 176.995 279 177.5V215H248V177.5C248.001 176.995 247.94 176.491 247.82 176H279.18ZM673 223H661.08C660.423 220.7 659.035 218.675 657.127 217.232C655.218 215.789 652.893 215.006 650.5 215H644V177.5C644.003 176.695 643.85 175.897 643.55 175.15C644.683 174.483 645.565 173.461 646.06 172.243C646.555 171.025 646.635 169.677 646.288 168.409C645.941 167.141 645.186 166.022 644.14 165.225C643.094 164.428 641.815 163.998 640.5 164H238.5C237.185 163.998 235.906 164.428 234.86 165.225C233.814 166.022 233.059 167.141 232.712 168.409C232.365 169.677 232.445 171.025 232.94 172.243C233.435 173.461 234.317 174.483 235.45 175.15C235.15 175.897 234.997 176.695 235 177.5V215H228.5C226.107 215.006 223.782 215.789 221.873 217.232C219.965 218.675 218.577 220.7 217.92 223H205C202.614 223.004 200.327 223.953 198.64 225.64C196.953 227.327 196.004 229.614 196 232V760C196.005 762.385 196.955 764.672 198.642 766.358C200.328 768.045 202.615 768.995 205 769H673C675.386 768.997 677.673 768.047 679.36 766.36C681.047 764.673 681.997 762.386 682 760V232C681.996 229.614 681.047 227.327 679.36 225.64C677.673 223.953 675.386 223.004 673 223ZM680 760C679.998 761.429 679.56 762.823 678.743 763.996C677.926 765.169 676.77 766.063 675.43 766.56C674.654 766.855 673.83 767.005 673 767H205C204.17 767.005 203.346 766.855 202.57 766.56C201.23 766.063 200.074 765.169 199.257 763.996C198.44 762.823 198.002 761.429 198 760V232C198.002 230.144 198.74 228.365 200.053 227.053C201.365 225.74 203.144 225.002 205 225H219.52L219.68 224.2C220.101 222.17 221.207 220.346 222.813 219.035C224.419 217.724 226.427 217.006 228.5 217H237V177.5C237 176.686 237.222 175.888 237.64 175.19L238.26 174.16L237.13 173.74C236.247 173.42 235.505 172.799 235.035 171.985C234.565 171.172 234.397 170.219 234.561 169.294C234.725 168.369 235.21 167.532 235.93 166.929C236.651 166.327 237.561 165.998 238.5 166H640.5C641.439 165.998 642.349 166.326 643.07 166.929C643.79 167.532 644.275 168.369 644.439 169.294C644.603 170.219 644.435 171.172 643.965 171.985C643.495 172.799 642.753 173.42 641.87 173.74L640.74 174.16L641.36 175.19C641.779 175.888 642 176.686 642 177.5V217H650.5C652.573 217.006 654.581 217.724 656.187 219.035C657.793 220.346 658.899 222.17 659.32 224.2L659.48 225H673C674.856 225.002 676.635 225.74 677.947 227.053C679.26 228.365 679.998 230.144 680 232L680 760ZM244.76 174L245.5 175.46C245.828 176.09 246 176.79 246 177.5V217H281V177.5C281 176.79 281.172 176.09 281.5 175.46L282.24 174H244.76ZM279 177.5V215H248V177.5C248.001 176.995 247.94 176.491 247.82 176H279.18C279.06 176.491 278.999 176.995 279 177.5ZM288.76 174L289.5 175.46C289.828 176.09 290 176.79 290 177.5V217H325V177.5C325 176.79 325.172 176.09 325.5 175.46L326.24 174H288.76ZM323 177.5V215H292V177.5C292.001 176.995 291.94 176.491 291.82 176H323.18C323.06 176.491 322.999 176.995 323 177.5ZM332.76 174L333.5 175.46C333.828 176.09 334 176.79 334 177.5V217H369V177.5C369 176.79 369.172 176.09 369.5 175.46L370.24 174H332.76ZM367 177.5V215H336V177.5C336.001 176.995 335.94 176.491 335.82 176H367.18C367.06 176.491 366.999 176.995 367 177.5ZM376.76 174L377.5 175.46C377.828 176.09 378 176.79 378 177.5V217H413V177.5C413 176.79 413.172 176.09 413.5 175.46L414.24 174H376.76ZM411 177.5V215H380V177.5C380.001 176.995 379.94 176.491 379.82 176H411.18C411.06 176.491 410.999 176.995 411 177.5ZM420.76 174L421.5 175.46C421.828 176.09 422 176.79 422 177.5V217H457V177.5C457 176.79 457.172 176.09 457.5 175.46L458.24 174H420.76ZM455 177.5V215H424V177.5C424.001 176.995 423.94 176.491 423.82 176H455.18C455.06 176.491 454.999 176.995 455 177.5ZM464.76 174L465.5 175.46C465.828 176.09 466 176.79 466 177.5V217H501V177.5C501 176.79 501.172 176.09 501.5 175.46L502.24 174H464.76ZM499 177.5V215H468V177.5C468.001 176.995 467.94 176.491 467.82 176H499.18C499.06 176.491 498.999 176.995 499 177.5ZM508.76 174L509.5 175.46C509.828 176.09 510 176.79 510 177.5V217H545V177.5C545 176.79 545.172 176.09 545.5 175.46L546.24 174H508.76ZM543 177.5V215H512V177.5C512.001 176.995 511.94 176.491 511.82 176H543.18C543.06 176.491 542.999 176.995 543 177.5ZM552.76 174L553.5 175.46C553.828 176.09 554 176.79 554 177.5V217H589V177.5C589 176.79 589.172 176.09 589.5 175.46L590.24 174H552.76ZM587 177.5V215H556V177.5C556.001 176.995 555.94 176.491 555.82 176H587.18C587.06 176.491 586.999 176.995 587 177.5ZM596.76 174L597.5 175.46C597.828 176.09 598 176.79 598 177.5V217H633V177.5C633 176.79 633.172 176.09 633.5 175.46L634.24 174H596.76ZM631 177.5V215H600V177.5C600.001 176.995 599.94 176.491 599.82 176H631.18C631.06 176.491 630.999 176.995 631 177.5ZM244.76 174L245.5 175.46C245.828 176.09 246 176.79 246 177.5V217H281V177.5C281 176.79 281.172 176.09 281.5 175.46L282.24 174H244.76ZM279 177.5V215H248V177.5C248.001 176.995 247.94 176.491 247.82 176H279.18C279.06 176.491 278.999 176.995 279 177.5ZM288.76 174L289.5 175.46C289.828 176.09 290 176.79 290 177.5V217H325V177.5C325 176.79 325.172 176.09 325.5 175.46L326.24 174H288.76ZM323 177.5V215H292V177.5C292.001 176.995 291.94 176.491 291.82 176H323.18C323.06 176.491 322.999 176.995 323 177.5ZM332.76 174L333.5 175.46C333.828 176.09 334 176.79 334 177.5V217H369V177.5C369 176.79 369.172 176.09 369.5 175.46L370.24 174H332.76ZM367 177.5V215H336V177.5C336.001 176.995 335.94 176.491 335.82 176H367.18C367.06 176.491 366.999 176.995 367 177.5ZM376.76 174L377.5 175.46C377.828 176.09 378 176.79 378 177.5V217H413V177.5C413 176.79 413.172 176.09 413.5 175.46L414.24 174H376.76ZM411 177.5V215H380V177.5C380.001 176.995 379.94 176.491 379.82 176H411.18C411.06 176.491 410.999 176.995 411 177.5ZM420.76 174L421.5 175.46C421.828 176.09 422 176.79 422 177.5V217H457V177.5C457 176.79 457.172 176.09 457.5 175.46L458.24 174H420.76ZM455 177.5V215H424V177.5C424.001 176.995 423.94 176.491 423.82 176H455.18C455.06 176.491 454.999 176.995 455 177.5ZM464.76 174L465.5 175.46C465.828 176.09 466 176.79 466 177.5V217H501V177.5C501 176.79 501.172 176.09 501.5 175.46L502.24 174H464.76ZM499 177.5V215H468V177.5C468.001 176.995 467.94 176.491 467.82 176H499.18C499.06 176.491 498.999 176.995 499 177.5ZM508.76 174L509.5 175.46C509.828 176.09 510 176.79 510 177.5V217H545V177.5C545 176.79 545.172 176.09 545.5 175.46L546.24 174H508.76ZM543 177.5V215H512V177.5C512.001 176.995 511.94 176.491 511.82 176H543.18C543.06 176.491 542.999 176.995 543 177.5ZM552.76 174L553.5 175.46C553.828 176.09 554 176.79 554 177.5V217H589V177.5C589 176.79 589.172 176.09 589.5 175.46L590.24 174H552.76ZM587 177.5V215H556V177.5C556.001 176.995 555.94 176.491 555.82 176H587.18C587.06 176.491 586.999 176.995 587 177.5ZM596.76 174L597.5 175.46C597.828 176.09 598 176.79 598 177.5V217H633V177.5C633 176.79 633.172 176.09 633.5 175.46L634.24 174H596.76ZM631 177.5V215H600V177.5C600.001 176.995 599.94 176.491 599.82 176H631.18C631.06 176.491 630.999 176.995 631 177.5ZM244.76 174L245.5 175.46C245.828 176.09 246 176.79 246 177.5V217H281V177.5C281 176.79 281.172 176.09 281.5 175.46L282.24 174H244.76ZM279 177.5V215H248V177.5C248.001 176.995 247.94 176.491 247.82 176H279.18C279.06 176.491 278.999 176.995 279 177.5ZM288.76 174L289.5 175.46C289.828 176.09 290 176.79 290 177.5V217H325V177.5C325 176.79 325.172 176.09 325.5 175.46L326.24 174H288.76ZM323 177.5V215H292V177.5C292.001 176.995 291.94 176.491 291.82 176H323.18C323.06 176.491 322.999 176.995 323 177.5ZM332.76 174L333.5 175.46C333.828 176.09 334 176.79 334 177.5V217H369V177.5C369 176.79 369.172 176.09 369.5 175.46L370.24 174H332.76ZM367 177.5V215H336V177.5C336.001 176.995 335.94 176.491 335.82 176H367.18C367.06 176.491 366.999 176.995 367 177.5ZM376.76 174L377.5 175.46C377.828 176.09 378 176.79 378 177.5V217H413V177.5C413 176.79 413.172 176.09 413.5 175.46L414.24 174H376.76ZM411 177.5V215H380V177.5C380.001 176.995 379.94 176.491 379.82 176H411.18C411.06 176.491 410.999 176.995 411 177.5ZM420.76 174L421.5 175.46C421.828 176.09 422 176.79 422 177.5V217H457V177.5C457 176.79 457.172 176.09 457.5 175.46L458.24 174H420.76ZM455 177.5V215H424V177.5C424.001 176.995 423.94 176.491 423.82 176H455.18C455.06 176.491 454.999 176.995 455 177.5ZM464.76 174L465.5 175.46C465.828 176.09 466 176.79 466 177.5V217H501V177.5C501 176.79 501.172 176.09 501.5 175.46L502.24 174H464.76ZM499 177.5V215H468V177.5C468.001 176.995 467.94 176.491 467.82 176H499.18C499.06 176.491 498.999 176.995 499 177.5ZM508.76 174L509.5 175.46C509.828 176.09 510 176.79 510 177.5V217H545V177.5C545 176.79 545.172 176.09 545.5 175.46L546.24 174H508.76ZM543 177.5V215H512V177.5C512.001 176.995 511.94 176.491 511.82 176H543.18C543.06 176.491 542.999 176.995 543 177.5ZM552.76 174L553.5 175.46C553.828 176.09 554 176.79 554 177.5V217H589V177.5C589 176.79 589.172 176.09 589.5 175.46L590.24 174H552.76ZM587 177.5V215H556V177.5C556.001 176.995 555.94 176.491 555.82 176H587.18C587.06 176.491 586.999 176.995 587 177.5ZM596.76 174L597.5 175.46C597.828 176.09 598 176.79 598 177.5V217H633V177.5C633 176.79 633.172 176.09 633.5 175.46L634.24 174H596.76ZM631 177.5V215H600V177.5C600.001 176.995 599.94 176.491 599.82 176H631.18C631.06 176.491 630.999 176.995 631 177.5ZM244.76 174L245.5 175.46C245.828 176.09 246 176.79 246 177.5V217H281V177.5C281 176.79 281.172 176.09 281.5 175.46L282.24 174H244.76ZM279 177.5V215H248V177.5C248.001 176.995 247.94 176.491 247.82 176H279.18C279.06 176.491 278.999 176.995 279 177.5ZM288.76 174L289.5 175.46C289.828 176.09 290 176.79 290 177.5V217H325V177.5C325 176.79 325.172 176.09 325.5 175.46L326.24 174H288.76ZM323 177.5V215H292V177.5C292.001 176.995 291.94 176.491 291.82 176H323.18C323.06 176.491 322.999 176.995 323 177.5ZM332.76 174L333.5 175.46C333.828 176.09 334 176.79 334 177.5V217H369V177.5C369 176.79 369.172 176.09 369.5 175.46L370.24 174H332.76ZM367 177.5V215H336V177.5C336.001 176.995 335.94 176.491 335.82 176H367.18C367.06 176.491 366.999 176.995 367 177.5ZM376.76 174L377.5 175.46C377.828 176.09 378 176.79 378 177.5V217H413V177.5C413 176.79 413.172 176.09 413.5 175.46L414.24 174H376.76ZM411 177.5V215H380V177.5C380.001 176.995 379.94 176.491 379.82 176H411.18C411.06 176.491 410.999 176.995 411 177.5ZM420.76 174L421.5 175.46C421.828 176.09 422 176.79 422 177.5V217H457V177.5C457 176.79 457.172 176.09 457.5 175.46L458.24 174H420.76ZM455 177.5V215H424V177.5C424.001 176.995 423.94 176.491 423.82 176H455.18C455.06 176.491 454.999 176.995 455 177.5ZM464.76 174L465.5 175.46C465.828 176.09 466 176.79 466 177.5V217H501V177.5C501 176.79 501.172 176.09 501.5 175.46L502.24 174H464.76ZM499 177.5V215H468V177.5C468.001 176.995 467.94 176.491 467.82 176H499.18C499.06 176.491 498.999 176.995 499 177.5ZM508.76 174L509.5 175.46C509.828 176.09 510 176.79 510 177.5V217H545V177.5C545 176.79 545.172 176.09 545.5 175.46L546.24 174H508.76ZM543 177.5V215H512V177.5C512.001 176.995 511.94 176.491 511.82 176H543.18C543.06 176.491 542.999 176.995 543 177.5ZM552.76 174L553.5 175.46C553.828 176.09 554 176.79 554 177.5V217H589V177.5C589 176.79 589.172 176.09 589.5 175.46L590.24 174H552.76ZM587 177.5V215H556V177.5C556.001 176.995 555.94 176.491 555.82 176H587.18C587.06 176.491 586.999 176.995 587 177.5ZM596.76 174L597.5 175.46C597.828 176.09 598 176.79 598 177.5V217H633V177.5C633 176.79 633.172 176.09 633.5 175.46L634.24 174H596.76ZM631 177.5V215H600V177.5C600.001 176.995 599.94 176.491 599.82 176H631.18C631.06 176.491 630.999 176.995 631 177.5Z" fill="#3F3D56"/>
<rect x="234" y="166" width="410" height="8" rx="4" fill="white"/>
<rect x="219" y="216" width="441" height="58" rx="10" fill="white"/>
<rect x="237" y="232" width="64" height="9" rx="4.5" transform="rotate(-90 237 232)" fill="white"/>
<rect x="281" y="232" width="64" height="9" rx="4.5" transform="rotate(-90 281 232)" fill="white"/>
<rect x="325" y="232" width="64" height="9" rx="4.5" transform="rotate(-90 325 232)" fill="white"/>
<rect x="369" y="232" width="64" height="9" rx="4.5" transform="rotate(-90 369 232)" fill="white"/>
<rect x="413" y="232" width="64" height="9" rx="4.5" transform="rotate(-90 413 232)" fill="white"/>
<rect x="457" y="232" width="64" height="9" rx="4.5" transform="rotate(-90 457 232)" fill="white"/>
<rect x="501" y="232" width="64" height="9" rx="4.5" transform="rotate(-90 501 232)" fill="white"/>
<rect x="545" y="232" width="64" height="9" rx="4.5" transform="rotate(-90 545 232)" fill="white"/>
<rect x="589" y="232" width="64" height="9" rx="4.5" transform="rotate(-90 589 232)" fill="white"/>
<rect x="633" y="232" width="64" height="9" rx="4.5" transform="rotate(-90 633 232)" fill="white"/>
</svg>
