<svg width="879" height="673" viewBox="0 0 879 673" fill="none" xmlns="http://www.w3.org/2000/svg">
<ellipse cx="439.5" cy="629" rx="439.5" ry="44" fill="#C4C4C4"/>
<path d="M209.424 118.459L189 102.119L303.374 0H593.393V89.865L405.493 216.493L209.424 118.459Z" fill="#1F2E35"/>
<path d="M646.27 57.283V2.04H607.764V15.569L593.393 0L499.443 102.119L462.68 126.628L405.678 543.091L491.644 629.056H691.428V106.204L646.27 57.283Z" fill="#E4E4E4"/>
<path d="M499.443 102.119H189V629.056H499.443V102.119Z" fill="white"/>
<path d="M366.688 500.385H309.501V629.056H366.688V500.385Z" fill="#CCCCCC"/>
<path d="M248.229 537.148V516.724H223.721V537.148H246.187H248.229Z" fill="#1F2E35"/>
<path d="M246.187 553.487H223.721V573.911H248.229V553.487H246.187Z" fill="#1F2E35"/>
<path d="M289.077 516.724H264.568V537.148H289.077V516.724Z" fill="#1F2E35"/>
<path d="M289.077 553.487H264.568V573.911H289.077V553.487Z" fill="#1F2E35"/>
<path d="M415.705 537.148V516.724H391.197V537.148H413.663H415.705Z" fill="#1F2E35"/>
<path d="M413.663 553.487H391.197V573.911H415.705V553.487H413.663Z" fill="#1F2E35"/>
<path d="M456.553 516.724H432.044V537.148H456.553V516.724Z" fill="#1F2E35"/>
<path d="M456.553 553.487H432.044V573.911H456.553V553.487Z" fill="#1F2E35"/>
<path d="M587.266 128.67V108.247H562.757V128.67H585.224H587.266Z" fill="#1F2E35"/>
<path d="M585.224 145.01H562.757V165.433H587.266V145.01H585.224Z" fill="#1F2E35"/>
<path d="M628.114 108.247H603.605V128.67H628.114V108.247Z" fill="#1F2E35"/>
<path d="M628.114 145.01H603.605V165.434H628.114V145.01Z" fill="#1F2E35"/>
<path d="M587.266 243.044V222.62H562.757V243.044H585.224H587.266Z" fill="#1F2E35"/>
<path d="M585.224 259.383H562.757V279.807H587.266V259.383H585.224Z" fill="#1F2E35"/>
<path d="M628.114 222.62H603.605V243.044H628.114V222.62Z" fill="#1F2E35"/>
<path d="M628.114 259.383H603.605V279.807H628.114V259.383Z" fill="#1F2E35"/>
<path d="M587.266 357.418V336.994H562.757V357.418H585.224H587.266Z" fill="#1F2E35"/>
<path d="M585.224 373.757H562.757V394.181H587.266V373.757H585.224Z" fill="#1F2E35"/>
<path d="M628.114 336.994H603.605V357.418H628.114V336.994Z" fill="#1F2E35"/>
<path d="M628.114 373.757H603.605V394.181H628.114V373.757Z" fill="#1F2E35"/>
<path d="M587.266 471.792V451.368H562.757V471.792H585.224H587.266Z" fill="#1F2E35"/>
<path d="M585.224 488.131H562.757V508.555H587.266V488.131H585.224Z" fill="#1F2E35"/>
<path d="M628.114 451.368H603.605V471.792H628.114V451.368Z" fill="#1F2E35"/>
<path d="M628.114 488.131H603.605V508.555H628.114V488.131Z" fill="#1F2E35"/>
<path d="M460.638 128.67H223.721V177.688H460.638V128.67Z" fill="#1F2E35"/>
<path d="M460.638 226.705H223.721V275.723H460.638V226.705Z" fill="#1F2E35"/>
<path d="M460.638 324.74H223.721V373.757H460.638V324.74Z" fill="#1F2E35"/>
<path d="M460.638 422.775H223.721V471.792H460.638V422.775Z" fill="#1F2E35"/>
</svg>
