<svg width="879" height="644" viewBox="0 0 879 644" fill="none" xmlns="http://www.w3.org/2000/svg">
<ellipse cx="439.5" cy="600" rx="439.5" ry="44" fill="#C4C4C4"/>
<path opacity="0.7" d="M752.709 600H130.576L134.883 308.522L312.807 279.062H564.354L748.402 299.927L752.709 600Z" fill="url(#paint0_linear)"/>
<path d="M744.095 596.325H139.19L143.497 312.197L313.377 282.736H567.416L739.788 303.601L744.095 596.325Z" fill="#E4E4E4"/>
<path opacity="0.7" d="M371.081 35.5153H325.687V154.545H371.081V35.5153Z" fill="url(#paint1_linear)"/>
<path opacity="0.7" d="M325.666 378.361V281.511H128.486L95 378.361V388.287H326.912V378.361H325.666Z" fill="url(#paint2_linear)"/>
<path d="M325.687 378.467H97.4485L130.576 282.736H325.687V378.467Z" fill="#1F2E35"/>
<path opacity="0.1" d="M325.687 378.467H97.4485L130.576 282.736H325.687V378.467Z" fill="black"/>
<path d="M326.911 378.466H97.4485V388.287H326.911V378.466Z" fill="#1F2E35"/>
<path opacity="0.7" d="M750.408 280.286H552.701V378.234H551.455V388.287H784V378.234L750.408 280.286Z" fill="url(#paint3_linear)"/>
<path d="M552.678 378.467H780.916L747.789 282.736H552.678V378.467Z" fill="#1F2E35"/>
<path opacity="0.1" d="M552.678 378.467H780.916L747.789 282.736H552.678V378.467Z" fill="black"/>
<path d="M551.454 388.287H780.917V378.466H551.454V388.287Z" fill="#1F2E35"/>
<path opacity="0.5" d="M282.742 426.955H158.805V504.27H282.742V426.955Z" fill="#1F2E35"/>
<path opacity="0.1" d="M290.09 498.758H151.437V512.253H290.09V498.758Z" fill="black"/>
<path d="M290.09 497.533H151.437V511.028H290.09V497.533Z" fill="#535461"/>
<path opacity="0.1" d="M282.742 426.955H158.805V457.64H282.742V426.955Z" fill="black"/>
<path opacity="0.5" d="M720.806 426.955H596.87V504.27H720.806V426.955Z" fill="#1F2E35"/>
<path opacity="0.1" d="M728.155 498.758H589.502V512.253H728.155V498.758Z" fill="black"/>
<path d="M728.155 497.533H589.502V511.028H728.155V497.533Z" fill="#535461"/>
<path opacity="0.1" d="M720.806 426.955H596.87V457.64H720.806V426.955Z" fill="black"/>
<path opacity="0.7" d="M590.937 186.609L439.574 31.0828L293.088 186.497L281.602 167.393L439.405 0L602.191 167.281L590.937 186.609Z" fill="url(#paint4_linear)"/>
<path opacity="0.1" d="M305.438 388.287H142.23V390.124H305.438V388.287Z" fill="black"/>
<path opacity="0.1" d="M741.055 388.287H576.01V390.124H741.055V388.287Z" fill="black"/>
<path d="M370 37H327V154H370V37Z" fill="#535461"/>
<path opacity="0.7" d="M576.009 596.325H301.152V260.034L439.763 256.972L576.009 260.034V596.325Z" fill="url(#paint5_linear)"/>
<path d="M574 596H306V143.1L440.011 15L574 143.1V596Z" fill="white"/>
<path d="M472.912 483.405H405.433V596.325H472.912V483.405Z" fill="#535461"/>
<path opacity="0.1" d="M508.509 382.162H369.856V395.657H508.509V382.162Z" fill="black"/>
<path opacity="0.5" d="M501 191C501 191 462.603 191 438 191C414.178 191 377 191 377 191C377 191 404.758 129 439 129C473.242 129 501 191 501 191Z" fill="#1F2E35"/>
<path opacity="0.5" d="M501 193H377V390H501V193Z" fill="#1F2E35"/>
<path d="M508.509 380.937H369.856V394.432H508.509V380.937Z" fill="#535461"/>
<path d="M590.767 188L439.682 32.9814L293.465 187.888L282 168.846L439.513 2L602 168.735L590.767 188Z" fill="#1F2E35"/>
<path d="M463.115 544.775C465.82 544.775 468.014 542.581 468.014 539.875C468.014 537.169 465.82 534.976 463.115 534.976C460.41 534.976 458.217 537.169 458.217 539.875C458.217 542.581 460.41 544.775 463.115 544.775Z" fill="#E0E0E0"/>
<path d="M501 324H377V322H501V324Z" fill="#F2F2F2"/>
<path d="M502 259H378V257H502V259Z" fill="#F2F2F2"/>
<path d="M441 381H439V129H441V381Z" fill="#F2F2F2"/>
<defs>
<linearGradient id="paint0_linear" x1="441.642" y1="600" x2="441.642" y2="279.062" gradientUnits="userSpaceOnUse">
<stop stop-color="#808080" stop-opacity="0.25"/>
<stop offset="0.54" stop-color="#808080" stop-opacity="0.12"/>
<stop offset="1" stop-color="#808080" stop-opacity="0.1"/>
</linearGradient>
<linearGradient id="paint1_linear" x1="15090.2" y1="14586.8" x2="15090.2" y2="9537.63" gradientUnits="userSpaceOnUse">
<stop stop-color="#808080" stop-opacity="0.25"/>
<stop offset="0.54" stop-color="#808080" stop-opacity="0.12"/>
<stop offset="1" stop-color="#808080" stop-opacity="0.1"/>
</linearGradient>
<linearGradient id="paint2_linear" x1="60429.2" y1="19602.5" x2="60429.2" y2="14203.9" gradientUnits="userSpaceOnUse">
<stop stop-color="#808080" stop-opacity="0.25"/>
<stop offset="0.54" stop-color="#808080" stop-opacity="0.12"/>
<stop offset="1" stop-color="#808080" stop-opacity="0.1"/>
</linearGradient>
<linearGradient id="paint3_linear" x1="111359" y1="19822.9" x2="111359" y2="14299.8" gradientUnits="userSpaceOnUse">
<stop stop-color="#808080" stop-opacity="0.25"/>
<stop offset="0.54" stop-color="#808080" stop-opacity="0.12"/>
<stop offset="1" stop-color="#808080" stop-opacity="0.1"/>
</linearGradient>
<linearGradient id="paint4_linear" x1="118752" y1="24947.8" x2="118752" y2="12534.5" gradientUnits="userSpaceOnUse">
<stop stop-color="#808080" stop-opacity="0.25"/>
<stop offset="0.54" stop-color="#808080" stop-opacity="0.12"/>
<stop offset="1" stop-color="#808080" stop-opacity="0.1"/>
</linearGradient>
<linearGradient id="paint5_linear" x1="101440" y1="95092.7" x2="101440" y2="40562" gradientUnits="userSpaceOnUse">
<stop stop-color="#808080" stop-opacity="0.25"/>
<stop offset="0.54" stop-color="#808080" stop-opacity="0.12"/>
<stop offset="1" stop-color="#808080" stop-opacity="0.1"/>
</linearGradient>
</defs>
</svg>
