<svg width="879" height="688" viewBox="0 0 879 688" fill="none" xmlns="http://www.w3.org/2000/svg">
<ellipse cx="439.5" cy="644" rx="439.5" ry="44" fill="#C4C4C4"/>
<g opacity="0.7">
<path opacity="0.7" d="M708 176.244H171V644H708V176.244Z" fill="url(#paint0_linear)"/>
</g>
<path d="M692.335 181.456H190.195C184.672 181.456 180.195 185.933 180.195 191.456V628.707C180.195 634.229 184.672 638.707 190.195 638.707H692.335C697.858 638.707 702.335 634.229 702.335 628.707V191.456C702.335 185.933 697.858 181.456 692.335 181.456Z" fill="#E4E4E4"/>
<g opacity="0.7">
<path opacity="0.7" d="M344.184 38.0804H279.451V165.74H344.184V38.0804Z" fill="url(#paint1_linear)"/>
</g>
<path d="M342.42 39.8446H281.216V165.739H342.42V39.8446Z" fill="#535461"/>
<g opacity="0.7">
<path opacity="0.7" d="M636.287 638.748H244.477V159.625L442.086 155.234L636.287 159.625V638.748Z" fill="url(#paint2_linear)"/>
</g>
<path d="M631.936 638.748H250.593V159.625L441.265 24.0874L631.936 159.625V638.748Z" fill="white"/>
<path d="M489.375 477.85H393.156V638.707H489.375V477.85Z" fill="#535461"/>
<path opacity="0.5" d="M529.602 231.313H352.928V341.492H529.602V231.313Z" fill="#1F2E35"/>
<path d="M540.07 331.848H342.42V351.094H540.07V331.848Z" fill="#535461"/>
<g opacity="0.1">
<path opacity="0.1" d="M529.602 231.313H352.928V275.015H529.602V231.313Z" fill="black"/>
</g>
<g opacity="0.7">
<path opacity="0.7" d="M657.551 200.168L441.799 33.3613L232.984 200.045L216.606 179.527L441.553 0L673.602 179.404L657.551 200.168Z" fill="url(#paint3_linear)"/>
</g>
<path d="M657.551 201.891L441.799 35.0844L232.984 201.768L216.606 181.291L441.553 1.72314L673.602 181.168L657.551 201.891Z" fill="#1F2E35"/>
<path d="M475.377 565.295C479.231 565.295 482.356 562.172 482.356 558.319C482.356 554.467 479.231 551.344 475.377 551.344C471.523 551.344 468.399 554.467 468.399 558.319C468.399 562.172 471.523 565.295 475.377 565.295Z" fill="#E0E0E0"/>
<defs>
<linearGradient id="paint0_linear" x1="35296.2" y1="132294" x2="35296.2" y2="78974.4" gradientUnits="userSpaceOnUse">
<stop stop-color="#808080" stop-opacity="0.25"/>
<stop offset="0.54" stop-color="#808080" stop-opacity="0.12"/>
<stop offset="1" stop-color="#808080" stop-opacity="0.1"/>
</linearGradient>
<linearGradient id="paint1_linear" x1="2499.82" y1="21216.8" x2="2499.82" y2="17245.3" gradientUnits="userSpaceOnUse">
<stop stop-color="#808080" stop-opacity="0.25"/>
<stop offset="0.54" stop-color="#808080" stop-opacity="0.12"/>
<stop offset="1" stop-color="#808080" stop-opacity="0.1"/>
</linearGradient>
<linearGradient id="paint2_linear" x1="25955.1" y1="136105" x2="25955.1" y2="79132.3" gradientUnits="userSpaceOnUse">
<stop stop-color="#808080" stop-opacity="0.25"/>
<stop offset="0.54" stop-color="#808080" stop-opacity="0.12"/>
<stop offset="1" stop-color="#808080" stop-opacity="0.1"/>
</linearGradient>
<linearGradient id="paint3_linear" x1="30734.8" y1="34887.2" x2="30734.8" y2="25123" gradientUnits="userSpaceOnUse">
<stop stop-color="#808080" stop-opacity="0.25"/>
<stop offset="0.54" stop-color="#808080" stop-opacity="0.12"/>
<stop offset="1" stop-color="#808080" stop-opacity="0.1"/>
</linearGradient>
</defs>
</svg>
