<svg width="879" height="646" viewBox="0 0 879 646" fill="none" xmlns="http://www.w3.org/2000/svg">
<ellipse cx="439.5" cy="602" rx="439.5" ry="44" fill="#C4C4C4"/>
<path d="M227.948 114H199.478V453H227.948V114Z" fill="#1F2E35"/>
<path d="M762.983 452H86.5804V598H762.983V452Z" fill="white"/>
<path d="M762.983 316H86.5804V462H762.983V316Z" fill="white"/>
<path d="M488 481H145V598H488V481Z" fill="#CCCCCC"/>
<path d="M584.801 492H525.407V598H584.801V492Z" fill="#1F2E35"/>
<path d="M678.064 498H649.104V525.5H678.064V498Z" fill="#1F2E35"/>
<path d="M716.842 498H687.881V525.5H716.842V498Z" fill="#1F2E35"/>
<path d="M678.064 535.5H649.104V564H678.064V535.5Z" fill="#1F2E35"/>
<path d="M716.842 535.5H687.881V564H716.842V535.5Z" fill="#1F2E35"/>
<path d="M552.931 502.739H538.661V516.29H552.931V502.739Z" fill="#F2F2F2"/>
<path d="M572.039 502.739H557.768V516.29H572.039V502.739Z" fill="#F2F2F2"/>
<path d="M552.931 521.217H538.661V535.261H552.931V521.217Z" fill="#F2F2F2"/>
<path d="M572.039 521.217H557.768V535.261H572.039V521.217Z" fill="#F2F2F2"/>
<path d="M576.948 556.5C579.116 556.5 580.874 554.709 580.874 552.5C580.874 550.291 579.116 548.5 576.948 548.5C574.779 548.5 573.021 550.291 573.021 552.5C573.021 554.709 574.779 556.5 576.948 556.5Z" fill="#F2F2F2"/>
<path d="M489 493H145V495H489V493Z" fill="#F2F2F2"/>
<path d="M489 502H145V504H489V502Z" fill="#F2F2F2"/>
<path d="M489 511H145V513H489V511Z" fill="#F2F2F2"/>
<path d="M489 521H145V523H489V521Z" fill="#F2F2F2"/>
<path d="M489 529H145V531H489V529Z" fill="#F2F2F2"/>
<path d="M489 538H145V540H489V538Z" fill="#F2F2F2"/>
<path d="M489 547H145V549H489V547Z" fill="#F2F2F2"/>
<path d="M489 556H145V558H489V556Z" fill="#F2F2F2"/>
<path d="M489 565H145V567H489V565Z" fill="#F2F2F2"/>
<path d="M489 574H145V576H489V574Z" fill="#F2F2F2"/>
<path d="M489 583H145V585H489V583Z" fill="#F2F2F2"/>
<path opacity="0.5" d="M273.832 355H152.162V432.315H273.832V355Z" fill="#1F2E35"/>
<path d="M281.046 425.578H144.928V439.073H281.046V425.578Z" fill="#535461"/>
<path opacity="0.5" d="M480.904 355H359.233V432.315H480.904V355Z" fill="#1F2E35"/>
<path d="M488.118 425.578H352V439.073H488.118V425.578Z" fill="#535461"/>
<path opacity="0.5" d="M688.768 355H567.097V432.315H688.768V355Z" fill="#1F2E35"/>
<path d="M695.981 425.578H559.864V439.073H695.981V425.578Z" fill="#535461"/>
<path d="M602.963 75H330.046V167H602.963V75Z" fill="#E4E4E4"/>
<path d="M347.717 0L304.521 92H628.488L602.963 0H347.717Z" fill="#1F2E35"/>
<path d="M377.745 100.174H355.08V121.696H377.745V100.174Z" fill="#1F2E35"/>
<path d="M408.092 100.174H385.428V121.696H408.092V100.174Z" fill="#1F2E35"/>
<path d="M377.745 129.522H355.08V151.826H377.745V129.522Z" fill="#1F2E35"/>
<path d="M408.092 129.522H385.428V151.826H408.092V129.522Z" fill="#1F2E35"/>
<path d="M547.582 100.174H524.917V121.696H547.582V100.174Z" fill="#1F2E35"/>
<path d="M577.929 100.174H555.264V121.696H577.929V100.174Z" fill="#1F2E35"/>
<path d="M547.582 129.522H524.917V151.826H547.582V129.522Z" fill="#1F2E35"/>
<path d="M577.929 129.522H555.264V151.826H577.929V129.522Z" fill="#1F2E35"/>
<path d="M463.154 100.174H440.489V121.696H463.154V100.174Z" fill="#1F2E35"/>
<path d="M493.502 100.174H470.837V121.696H493.502V100.174Z" fill="#1F2E35"/>
<path d="M463.154 129.522H440.489V151.826H463.154V129.522Z" fill="#1F2E35"/>
<path d="M493.502 129.522H470.837V151.826H493.502V129.522Z" fill="#1F2E35"/>
<path d="M66.9461 324L140.575 167H728.623L783.599 324H66.9461Z" fill="#1F2E35"/>
</svg>
