<svg width="6696" height="2420" viewBox="0 0 6696 2420" fill="none" xmlns="http://www.w3.org/2000/svg">
<g opacity="0.7">
<path opacity="0.7" d="M6695.11 1250.35H5425V2419.06H6695.11V1250.35Z" fill="url(#paint0_linear)"/>
</g>
<path d="M6671.71 1263.38H5456.75C5451.22 1263.38 5446.75 1267.85 5446.75 1273.38V2395.84C5446.75 2401.36 5451.22 2405.84 5456.75 2405.84H6671.71C6677.23 2405.84 6681.71 2401.36 6681.71 2395.84V1273.38C6681.71 1267.85 6677.23 1263.38 6671.71 1263.38Z" fill="#E4E4E4"/>
<g opacity="0.7">
<path opacity="0.7" d="M5834.61 905.146H5681.51V1224.11H5834.61V905.146Z" fill="url(#paint1_linear)"/>
</g>
<path d="M5830.44 909.554H5685.68V1224.11H5830.44V909.554Z" fill="#535461"/>
<g opacity="0.7">
<path opacity="0.7" d="M6525.49 2405.94H5598.79V1208.83L6066.17 1197.86L6525.49 1208.83V2405.94Z" fill="url(#paint2_linear)"/>
</g>
<path d="M6515.2 2405.94H5613.25V1208.83L6064.23 870.184L6515.2 1208.83V2405.94Z" fill="white"/>
<path d="M6178.02 2003.93H5950.44V2405.84H6178.02V2003.93Z" fill="#535461"/>
<path opacity="0.5" d="M6273.16 1387.95H5855.29V1663.23H6273.16V1387.95Z" fill="#1F2E35"/>
<path d="M6297.92 1639.14H5830.44V1687.22H6297.92V1639.14Z" fill="#535461"/>
<g opacity="0.1">
<path opacity="0.1" d="M6273.16 1387.95H5855.29V1497.14H6273.16V1387.95Z" fill="black"/>
</g>
<g opacity="0.7">
<path opacity="0.7" d="M6575.79 1310.13L6065.49 893.355L5571.6 1309.82L5532.87 1258.56L6064.91 810L6613.75 1258.25L6575.79 1310.13Z" fill="url(#paint3_linear)"/>
</g>
<path d="M6575.79 1314.43L6065.49 897.66L5571.6 1314.13L5532.87 1262.96L6064.91 814.305L6613.75 1262.66L6575.79 1314.43Z" fill="#1F2E35"/>
<path d="M6144.91 2222.42C6154.03 2222.42 6161.41 2214.61 6161.41 2204.99C6161.41 2195.36 6154.03 2187.56 6144.91 2187.56C6135.79 2187.56 6128.4 2195.36 6128.4 2204.99C6128.4 2214.61 6135.79 2222.42 6144.91 2222.42Z" fill="#E0E0E0"/>
<g opacity="0.7">
<path opacity="0.7" d="M1270.11 1250.35H0V2419.06H1270.11V1250.35Z" fill="url(#paint4_linear)"/>
</g>
<path d="M1246.71 1263.38H31.7476C26.2247 1263.38 21.7476 1267.85 21.7476 1273.38V2395.84C21.7476 2401.36 26.2247 2405.84 31.7475 2405.84H1246.71C1252.23 2405.84 1256.71 2401.36 1256.71 2395.84V1273.38C1256.71 1267.85 1252.23 1263.38 1246.71 1263.38Z" fill="#E4E4E4"/>
<g opacity="0.7">
<path opacity="0.7" d="M409.614 905.146H256.506V1224.11H409.614V905.146Z" fill="url(#paint5_linear)"/>
</g>
<path d="M405.44 909.554H260.682V1224.11H405.44V909.554Z" fill="#535461"/>
<g opacity="0.7">
<path opacity="0.7" d="M1100.49 2405.94H173.787V1208.83L641.168 1197.86L1100.49 1208.83V2405.94Z" fill="url(#paint6_linear)"/>
</g>
<path d="M1090.2 2405.94H188.253V1208.83L639.227 870.184L1090.2 1208.83V2405.94Z" fill="white"/>
<path d="M753.016 2003.93H525.441V2405.84H753.016V2003.93Z" fill="#535461"/>
<path opacity="0.5" d="M848.162 1387.95H430.295V1663.23H848.162V1387.95Z" fill="#1F2E35"/>
<path d="M872.918 1639.14H405.439V1687.22H872.918V1639.14Z" fill="#535461"/>
<g opacity="0.1">
<path opacity="0.1" d="M848.162 1387.95H430.295V1497.14H848.162V1387.95Z" fill="black"/>
</g>
<g opacity="0.7">
<path opacity="0.7" d="M1150.79 1310.13L640.491 893.355L146.604 1309.82L107.866 1258.56L639.908 810L1188.75 1258.25L1150.79 1310.13Z" fill="url(#paint7_linear)"/>
</g>
<path d="M1150.79 1314.43L640.491 897.66L146.604 1314.13L107.866 1262.96L639.908 814.305L1188.75 1262.66L1150.79 1314.43Z" fill="#1F2E35"/>
<path d="M719.91 2222.42C729.025 2222.42 736.415 2214.61 736.415 2204.99C736.415 2195.36 729.025 2187.56 719.91 2187.56C710.794 2187.56 703.405 2195.36 703.405 2204.99C703.405 2214.61 710.794 2222.42 719.91 2222.42Z" fill="#E0E0E0"/>
<path d="M5715.03 1870.29L5754 1805.42L5390.28 1494H4455V1584.82L4792.74 1948.15L5182.44 2026L5715.03 1870.29Z" fill="#1F2E35"/>
<path d="M4294.7 1677.11V1474H4417.07V1538.05L4455.59 1494.28L4767.16 1805.84L4819.09 1857.77L4884 2117.41L4767.16 2403H4170V1818.82L4294.7 1677.11Z" fill="#CCCCCC"/>
<path d="M4768 1805H5754V2403H4768V1805Z" fill="#F2F2F2"/>
<path d="M4903 1994H5111V2176H4903V1994Z" fill="#1F2E35"/>
<path d="M5195 1987H5377V2403H5195V1987Z" fill="#CCCCCC"/>
<path d="M5585 2053V1987H5663V2053H5591.5H5585Z" fill="#1F2E35"/>
<path d="M5591.5 2104H5663V2169H5585V2104H5591.5Z" fill="#1F2E35"/>
<path d="M5456 1987H5533V2053H5456V1987Z" fill="#1F2E35"/>
<path d="M5456 2104H5533V2169H5456V2104Z" fill="#1F2E35"/>
<path d="M4488 2058V1994H4566V2058H4494.5H4488Z" fill="#1F2E35"/>
<path d="M4494.5 2111H4566V2176H4488V2111H4494.5Z" fill="#1F2E35"/>
<path d="M981.878 1870.29L943 1805.42L1305.88 1494H2239V1584.82L1902.04 1948.15L1513.24 2026L981.878 1870.29Z" fill="#1F2E35"/>
<path d="M2400.3 1676.89V1474H2277.93V1537.98L2239.41 1494.25L1927.84 1805.48L1875.91 1857.35L1811 2116.71L1927.84 2402H2525V1818.45L2400.3 1676.89Z" fill="#CCCCCC"/>
<path d="M1928 1805H943V2402H1928V1805Z" fill="#F2F2F2"/>
<path d="M1792 1993H1585V2174H1792V1993Z" fill="#1F2E35"/>
<path d="M1501 1986H1319V2402H1501V1986Z" fill="#CCCCCC"/>
<path d="M1241 1986H1163V2052H1241V1986Z" fill="#1F2E35"/>
<path d="M1241 2103H1163V2169H1241V2103Z" fill="#1F2E35"/>
<path d="M2207 2058V1993H2129V2058H2200.5H2207Z" fill="#1F2E35"/>
<path d="M2200.5 2110H2129V2174H2207V2110H2200.5Z" fill="#1F2E35"/>
<path d="M2410 2033H2345V2087H2410V2033Z" fill="#1F2E35"/>
<path d="M2410 2131H2345V2185H2410V2131Z" fill="#1F2E35"/>
<g opacity="0.7">
<path opacity="0.7" d="M4394.74 2416.14H2315.67L2329.99 863.882L2924.59 707H3765.32L4380.42 818.139L4394.74 2416.14Z" fill="url(#paint8_linear)"/>
</g>
<path d="M4366.01 2396.57H2344.4L2358.81 883.448L2926.56 726.652H3775.53L4351.6 837.705L4366.01 2396.57Z" fill="#E4E4E4"/>
<g opacity="0.7">
<path opacity="0.7" d="M3119.35 38.1045H2967.64V337.708H3119.35V38.1045Z" fill="url(#paint9_linear)"/>
</g>
<g opacity="0.7">
<path opacity="0.7" d="M2967.64 961.031V637.226H2308.64L2196.72 961.031V994.244H2971.76V961.031H2967.64Z" fill="url(#paint10_linear)"/>
</g>
<path d="M2967.64 961.46H2204.95L2315.67 641.345H2967.64V961.46Z" fill="#1F2E35"/>
<path opacity="0.1" d="M2967.64 961.46H2204.95L2315.67 641.345H2967.64V961.46Z" fill="black"/>
<path d="M2971.84 961.461H2204.95V994.331H2971.84V961.461Z" fill="#1F2E35"/>
<g opacity="0.7">
<path opacity="0.7" d="M4387.11 641.345H3726.39V968.841H3722.18V1002.48H4499.28V968.841L4387.11 641.345Z" fill="url(#paint11_linear)"/>
</g>
<path d="M3726.3 969.613H4489.08L4378.36 649.584H3726.3V969.613Z" fill="#1F2E35"/>
<path opacity="0.1" d="M3726.3 969.613H4489.08L4378.36 649.584H3726.3V969.613Z" fill="black"/>
<path d="M3722.19 1002.48L4489.08 1002.48V969.614L3722.19 969.614V1002.48Z" fill="#1F2E35"/>
<path opacity="0.5" d="M2824.07 1837.53H2409.92V2096.02H2824.07V1837.53Z" fill="#1F2E35"/>
<path opacity="0.1" d="M2848.77 2077.57H2385.4V2122.71H2848.77V2077.57Z" fill="black"/>
<path d="M2848.77 2073.54H2385.4V2118.68H2848.77V2073.54Z" fill="#535461"/>
<g opacity="0.1">
<path opacity="0.1" d="M2824.07 1837.53H2409.92V1940.08H2824.07V1837.53Z" fill="black"/>
</g>
<path opacity="0.5" d="M4288.14 1837.53H3873.99V2096.02H4288.14V1837.53Z" fill="#1F2E35"/>
<path opacity="0.1" d="M4312.75 2077.57H3849.37V2122.71H4312.75V2077.57Z" fill="black"/>
<path d="M4312.75 2073.54H3849.37V2118.68H4312.75V2073.54Z" fill="#535461"/>
<g opacity="0.1">
<path opacity="0.1" d="M4288.14 1837.53H3873.99V1940.08H4288.14V1837.53Z" fill="black"/>
</g>
<path opacity="0.5" d="M4288.14 1234.29H3873.99V1492.78H4288.14V1234.29Z" fill="#1F2E35"/>
<path opacity="0.1" d="M4312.75 1474.42H3849.37V1519.56H4312.75V1474.42Z" fill="black"/>
<path d="M4312.75 1470.3H3849.37V1515.44H4312.75V1470.3Z" fill="#535461"/>
<g opacity="0.1">
<path opacity="0.1" d="M4288.14 1234.29H3873.99V1336.84H4288.14V1234.29Z" fill="black"/>
</g>
<path opacity="0.5" d="M2836.42 1234.29H2422.27V1492.78H2836.42V1234.29Z" fill="#1F2E35"/>
<path opacity="0.1" d="M2861.04 1474.42H2397.66V1519.56H2861.04V1474.42Z" fill="black"/>
<path d="M2861.04 1470.3H2397.66V1515.44H2861.04V1470.3Z" fill="#535461"/>
<g opacity="0.1">
<path opacity="0.1" d="M2836.42 1234.29H2422.27V1336.84H2836.42V1234.29Z" fill="black"/>
</g>
<g opacity="0.7">
<path opacity="0.7" d="M3854.09 469.702L3348.34 78.2694L2858.72 469.445L2820.3 421.385L3347.74 0L3891.74 421.041L3854.09 469.702Z" fill="url(#paint12_linear)"/>
</g>
<path opacity="0.1" d="M2899.97 994.244H2354.6V1000.42H2899.97V994.244Z" fill="black"/>
<path opacity="0.1" d="M4355.8 1002.48H3804.26V1008.66H4355.8V1002.48Z" fill="black"/>
<path d="M3115.32 42.2246H2971.76V337.709H3115.32V42.2246Z" fill="#535461"/>
<g opacity="0.7">
<path opacity="0.7" d="M3806.32 2403.87H2887.71V417.351L3351 399.243L3806.32 417.351V2403.87Z" fill="url(#paint13_linear)"/>
</g>
<path d="M3793.97 2403.87H2899.97V409.455L3346.97 73.0344L3802.2 421.814L3793.97 2403.87Z" fill="white"/>
<path d="M3459.75 2026.34H3234.19V2403.87H3459.75V2026.34Z" fill="#535461"/>
<path opacity="0.1" d="M3578.7 1687.77H3115.33V1732.91H3578.7V1687.77Z" fill="black"/>
<path opacity="0.5" d="M3554.09 1447.73H3139.94V1706.22H3554.09V1447.73Z" fill="#1F2E35"/>
<path d="M3578.7 1683.65H3115.33V1728.79H3578.7V1683.65Z" fill="#535461"/>
<g opacity="0.1">
<path opacity="0.1" d="M3554.09 1447.73H3139.94V1550.28H3554.09V1447.73Z" fill="black"/>
</g>
<path opacity="0.5" d="M3554.09 940.949H3139.94V1199.44H3554.09V940.949Z" fill="#1F2E35"/>
<path d="M3578.7 1176.87H3115.33V1222.02H3578.7V1176.87Z" fill="#535461"/>
<g opacity="0.1">
<path opacity="0.1" d="M3554.09 940.949H3139.94V1043.51H3554.09V940.949Z" fill="black"/>
</g>
<path opacity="0.5" d="M3554.09 434.087H3139.94V692.582H3554.09V434.087Z" fill="#1F2E35"/>
<path d="M3578.7 670.096H3115.33V715.239H3578.7V670.096Z" fill="#535461"/>
<g opacity="0.1">
<path opacity="0.1" d="M3554.09 434.087H3139.94V536.644H3554.09V434.087Z" fill="black"/>
</g>
<path d="M3854.09 484.121L3348.34 92.6021L2858.72 483.777L2820.3 435.717L3347.74 14.3328L3891.74 435.374L3854.09 484.121Z" fill="#1F2E35"/>
<path d="M3426.99 2231.45C3436.03 2231.45 3443.37 2224.11 3443.37 2215.06C3443.37 2206 3436.03 2198.67 3426.99 2198.67C3417.94 2198.67 3410.6 2206 3410.6 2215.06C3410.6 2224.11 3417.94 2231.45 3426.99 2231.45Z" fill="#E0E0E0"/>
<path d="M3624.94 2136.68L3619.29 2136C3619.29 2136 3617.88 2136.68 3617.18 2141.44C3616.47 2146.2 3608 2188.34 3608 2188.34L3619.29 2240L3632 2223.69L3624.24 2195.14L3632 2166.59L3624.94 2136.68Z" fill="#09203F"/>
<path d="M3645 2389L3655.16 2389L3660 2351L3645 2351L3645 2389Z" fill="#FFB8B8"/>
<path d="M3644 2385L3662.93 2385H3662.93C3666.13 2385 3669.2 2386.22 3671.47 2388.4C3673.73 2390.58 3675 2393.54 3675 2396.62V2397L3644 2397L3644 2385Z" fill="#09203F"/>
<path d="M3679 2389L3687.13 2389L3691 2351L3679 2351L3679 2389Z" fill="#FFB8B8"/>
<path d="M3675 2385L3694.54 2385H3694.54C3697.85 2385 3701.02 2386.22 3703.35 2388.4C3705.69 2390.58 3707 2393.54 3707 2396.62V2397L3675 2397L3675 2385Z" fill="#09203F"/>
<path d="M3660.74 2258.52L3663 2376L3644.7 2374.84L3632.01 2300.02L3628 2249L3660.74 2258.52Z" fill="#09203F"/>
<path d="M3693.39 2238.73L3696 2377L3674.25 2376.38L3669.55 2294.19L3661.37 2264.43L3628 2248.88L3633.45 2211.68L3682.49 2211L3693.39 2238.73Z" fill="#09203F"/>
<path d="M3654 2118C3662.84 2118 3670 2110.61 3670 2101.5C3670 2092.39 3662.84 2085 3654 2085C3645.16 2085 3638 2092.39 3638 2101.5C3638 2110.61 3645.16 2118 3654 2118Z" fill="#FFB8B8"/>
<path d="M3669.53 2122L3672.11 2125.84L3679 2144.74L3673.49 2218.32L3641.13 2219L3637 2134.61L3645.65 2124.01L3669.53 2122Z" fill="#CCCCCC"/>
<path d="M3694 2136H3698L3708 2191.12L3698.67 2234L3689.33 2218.35L3692 2201.33L3690.67 2186.36L3686 2177.51L3694 2136Z" fill="#09203F"/>
<path d="M3620 2136.49L3641.44 2127.73L3646.46 2124.02L3661.53 2191.07L3668.56 2122L3696.36 2136.49L3686.99 2182.31L3685.65 2199.83L3689.67 2213.98C3689.67 2213.98 3703.73 2224.08 3699.04 2234.86C3694.35 2245.64 3689 2246.32 3689 2246.32C3689 2246.32 3666.22 2224.76 3664.88 2219.37C3663.54 2213.98 3661.53 2204.54 3661.53 2204.54C3661.53 2204.54 3650.14 2247.67 3636.75 2246.99C3623.35 2246.32 3623.35 2232.17 3623.35 2232.17L3626.7 2217.34L3632.06 2201.85L3629.38 2176.24L3620 2136.49Z" fill="#09203F"/>
<path d="M3641.45 2084.09L3638.64 2082.96C3638.64 2082.96 3644.51 2076.42 3652.69 2076.98L3650.39 2074.43C3650.39 2074.43 3656.01 2072.15 3661.12 2078.12C3663.8 2081.26 3666.91 2084.95 3668.85 2089.11H3671.86L3670.6 2091.9L3675 2094.7L3670.49 2094.2C3670.91 2096.61 3670.77 2099.09 3670.06 2101.44L3670.18 2103.65C3670.18 2103.65 3664.95 2095.47 3664.95 2094.33V2097.18C3664.95 2097.18 3662.14 2094.62 3662.14 2092.91L3660.61 2094.9L3659.84 2091.77L3650.39 2094.9L3651.92 2092.34L3646.05 2093.19L3648.34 2090.07C3648.34 2090.07 3641.7 2093.76 3641.45 2096.89C3641.19 2100.02 3637.87 2104 3637.87 2104L3636.34 2101.16C3636.34 2101.16 3634.04 2088.36 3641.45 2084.09Z" fill="#2F2E41"/>
<defs>
<linearGradient id="paint0_linear" x1="88502.6" y1="331352" x2="88502.6" y2="198131" gradientUnits="userSpaceOnUse">
<stop stop-color="#808080" stop-opacity="0.25"/>
<stop offset="0.54" stop-color="#808080" stop-opacity="0.12"/>
<stop offset="1" stop-color="#808080" stop-opacity="0.1"/>
</linearGradient>
<linearGradient id="paint1_linear" x1="10933.1" y1="53821.1" x2="10933.1" y2="43898.1" gradientUnits="userSpaceOnUse">
<stop stop-color="#808080" stop-opacity="0.25"/>
<stop offset="0.54" stop-color="#808080" stop-opacity="0.12"/>
<stop offset="1" stop-color="#808080" stop-opacity="0.1"/>
</linearGradient>
<linearGradient id="paint2_linear" x1="66409.2" y1="340874" x2="66409.2" y2="198526" gradientUnits="userSpaceOnUse">
<stop stop-color="#808080" stop-opacity="0.25"/>
<stop offset="0.54" stop-color="#808080" stop-opacity="0.12"/>
<stop offset="1" stop-color="#808080" stop-opacity="0.1"/>
</linearGradient>
<linearGradient id="paint3_linear" x1="77714.1" y1="87977.4" x2="77714.1" y2="63581.1" gradientUnits="userSpaceOnUse">
<stop stop-color="#808080" stop-opacity="0.25"/>
<stop offset="0.54" stop-color="#808080" stop-opacity="0.12"/>
<stop offset="1" stop-color="#808080" stop-opacity="0.1"/>
</linearGradient>
<linearGradient id="paint4_linear" x1="83077.6" y1="331352" x2="83077.6" y2="198131" gradientUnits="userSpaceOnUse">
<stop stop-color="#808080" stop-opacity="0.25"/>
<stop offset="0.54" stop-color="#808080" stop-opacity="0.12"/>
<stop offset="1" stop-color="#808080" stop-opacity="0.1"/>
</linearGradient>
<linearGradient id="paint5_linear" x1="5508.1" y1="53821.1" x2="5508.1" y2="43898.1" gradientUnits="userSpaceOnUse">
<stop stop-color="#808080" stop-opacity="0.25"/>
<stop offset="0.54" stop-color="#808080" stop-opacity="0.12"/>
<stop offset="1" stop-color="#808080" stop-opacity="0.1"/>
</linearGradient>
<linearGradient id="paint6_linear" x1="60984.2" y1="340874" x2="60984.2" y2="198526" gradientUnits="userSpaceOnUse">
<stop stop-color="#808080" stop-opacity="0.25"/>
<stop offset="0.54" stop-color="#808080" stop-opacity="0.12"/>
<stop offset="1" stop-color="#808080" stop-opacity="0.1"/>
</linearGradient>
<linearGradient id="paint7_linear" x1="72289.1" y1="87977.4" x2="72289.1" y2="63581.1" gradientUnits="userSpaceOnUse">
<stop stop-color="#808080" stop-opacity="0.25"/>
<stop offset="0.54" stop-color="#808080" stop-opacity="0.12"/>
<stop offset="1" stop-color="#808080" stop-opacity="0.1"/>
</linearGradient>
<linearGradient id="paint8_linear" x1="1.53097e+06" y1="481881" x2="1.53097e+06" y2="141506" gradientUnits="userSpaceOnUse">
<stop stop-color="#808080" stop-opacity="0.25"/>
<stop offset="0.54" stop-color="#808080" stop-opacity="0.12"/>
<stop offset="1" stop-color="#808080" stop-opacity="0.1"/>
</linearGradient>
<linearGradient id="paint9_linear" x1="109004" y1="11827.5" x2="109004" y2="1368.34" gradientUnits="userSpaceOnUse">
<stop stop-color="#808080" stop-opacity="0.25"/>
<stop offset="0.54" stop-color="#808080" stop-opacity="0.12"/>
<stop offset="1" stop-color="#808080" stop-opacity="0.1"/>
</linearGradient>
<linearGradient id="paint10_linear" x1="502385" y1="41997.8" x2="502385" y2="27145.8" gradientUnits="userSpaceOnUse">
<stop stop-color="#808080" stop-opacity="0.25"/>
<stop offset="0.54" stop-color="#808080" stop-opacity="0.12"/>
<stop offset="1" stop-color="#808080" stop-opacity="0.1"/>
</linearGradient>
<linearGradient id="paint11_linear" x1="643555" y1="42825.8" x2="643555" y2="27629.2" gradientUnits="userSpaceOnUse">
<stop stop-color="#808080" stop-opacity="0.25"/>
<stop offset="0.54" stop-color="#808080" stop-opacity="0.12"/>
<stop offset="1" stop-color="#808080" stop-opacity="0.1"/>
</linearGradient>
<linearGradient id="paint12_linear" x1="790714" y1="25706.8" x2="790714" y2="0" gradientUnits="userSpaceOnUse">
<stop stop-color="#808080" stop-opacity="0.25"/>
<stop offset="0.54" stop-color="#808080" stop-opacity="0.12"/>
<stop offset="1" stop-color="#808080" stop-opacity="0.1"/>
</linearGradient>
<linearGradient id="paint13_linear" x1="677423" y1="561894" x2="677423" y2="93654.3" gradientUnits="userSpaceOnUse">
<stop stop-color="#808080" stop-opacity="0.25"/>
<stop offset="0.54" stop-color="#808080" stop-opacity="0.12"/>
<stop offset="1" stop-color="#808080" stop-opacity="0.1"/>
</linearGradient>
</defs>
</svg>
