<svg width="1995" height="413" viewBox="0 0 1995 413" fill="none" xmlns="http://www.w3.org/2000/svg">
<g filter="url(#filter0_d)">
<path d="M265.084 125.9L201.37 393.184H195.319L134.631 138.001L73.7646 393.184H67.7136L4 125.9L9.87305 124.477L70.7393 380.371L131.606 125.189H137.657L198.345 380.371L259.211 124.477L265.084 125.9ZM341.79 393.184V125.189H347.485V249.933H533.11V125.189H538.982V393.184H533.11V255.805H347.485V393.184H341.79ZM641.138 393.184V125.189H646.834V393.184H641.138ZM799.885 393.184V128.214H713.571V122.342H892.255V128.214H805.758V393.184H799.885ZM1064 255.805H964.687V390.158H1127.71V395.675H958.992V122.342H1127.71V128.214H964.687V249.933H1064V255.805Z" fill="black"/>
</g>
<g filter="url(#filter1_d)">
<path d="M1543.08 357.72L1503.93 371.711V100.958L1543.08 86.9669V357.72ZM1780.2 132.723L1748.43 171.105C1745.66 162.785 1742.07 154.844 1737.66 147.282C1733.24 139.718 1728.01 133.101 1721.96 127.429C1715.91 121.757 1709.04 117.219 1701.35 113.816C1693.66 110.412 1685.08 108.711 1675.63 108.711C1668.82 108.711 1662.52 109.971 1656.72 112.492C1650.92 114.887 1645.81 118.29 1641.4 122.702C1637.12 126.987 1633.71 132.092 1631.19 138.017C1628.8 143.941 1627.6 150.306 1627.6 157.113C1627.6 164.172 1628.93 170.79 1631.57 176.966C1634.22 183.142 1637.75 188.752 1642.16 193.793C1646.58 198.709 1651.61 202.995 1657.29 206.65C1663.09 210.306 1669.07 213.142 1675.25 215.159C1681.43 217.302 1687.92 219.697 1694.73 222.343C1701.54 224.991 1708.22 228.079 1714.78 231.608C1721.33 235.138 1727.57 239.108 1733.49 243.52C1739.42 247.805 1744.65 252.658 1749.19 258.079C1753.72 263.499 1757.32 269.549 1759.97 276.229C1762.61 282.784 1763.94 289.969 1763.94 297.784C1763.94 309.128 1761.42 319.338 1756.37 328.414C1751.46 337.363 1744.96 344.926 1736.9 351.103C1728.83 357.279 1719.56 362.006 1709.1 365.283C1698.77 368.56 1688.24 370.199 1677.52 370.199C1670.21 370.199 1662.77 369.128 1655.21 366.985C1647.77 364.842 1640.58 361.943 1633.65 358.287C1626.84 354.506 1620.41 350.157 1614.36 345.241C1608.44 340.325 1603.27 335.031 1598.86 329.359L1629.49 294.191C1631.38 300.242 1634.66 306.67 1639.33 313.477C1644.12 320.284 1649.66 326.586 1655.97 332.384C1662.27 338.183 1669.01 343.036 1676.2 346.943C1683.51 350.724 1690.57 352.615 1697.38 352.615C1701.28 352.615 1705.32 351.607 1709.48 349.59C1713.64 347.573 1717.42 344.989 1720.83 341.838C1724.35 338.561 1727.25 335.031 1729.52 331.25C1731.79 327.468 1732.93 323.75 1732.93 320.095C1732.93 314.548 1731.79 309.317 1729.52 304.401C1727.25 299.36 1724.23 294.633 1720.45 290.221C1716.79 285.809 1712.51 281.776 1707.59 278.12C1702.8 274.339 1697.75 270.999 1692.46 268.099C1687.29 265.074 1682.06 262.49 1676.76 260.347C1671.6 258.079 1666.8 256.314 1662.39 255.053C1653.7 252.406 1645.19 248.625 1636.87 243.709C1628.67 238.793 1621.36 232.869 1614.93 225.936C1608.5 219.003 1603.33 211.251 1599.42 202.68C1595.52 193.982 1593.57 184.718 1593.57 174.886C1593.57 166.441 1594.89 158.437 1597.53 150.874C1600.18 143.311 1603.84 136.315 1608.5 129.887C1613.17 123.458 1618.65 117.66 1624.95 112.492C1631.26 107.198 1638.06 102.786 1645.38 99.2569C1652.69 95.6015 1660.31 92.8285 1668.26 90.9375C1676.2 88.9208 1684.2 87.9126 1692.27 87.9126C1709.92 87.9126 1726.31 91.8828 1741.44 99.824C1756.56 107.639 1769.48 118.605 1780.2 132.723ZM1990.47 88.2907C1986.44 94.341 1981.65 100.013 1976.1 105.307C1970.56 110.601 1964.44 115.265 1957.76 119.299C1951.2 123.332 1944.27 126.546 1936.96 128.941C1929.65 131.21 1922.34 132.345 1915.02 132.345L1910.68 132.723C1905.88 138.773 1902.23 144.634 1899.71 150.306C1897.19 155.979 1895.92 162.659 1895.92 170.349V291.167C1895.92 307.931 1892.33 322.868 1885.15 335.977C1878.09 348.96 1867.63 360.178 1853.76 369.632L1847.52 362.447C1849.66 360.052 1851.36 357.342 1852.62 354.317C1853.89 351.165 1854.83 347.951 1855.46 344.674C1856.09 341.397 1856.47 338.12 1856.6 334.842C1856.85 331.439 1856.97 328.225 1856.97 325.2V192.281C1856.97 186.357 1858.17 180.621 1860.56 175.075C1863.08 169.403 1866.24 164.046 1870.02 159.004C1873.8 153.962 1877.96 149.235 1882.5 144.823C1887.16 140.412 1891.64 136.378 1895.92 132.723L1833.34 132.345C1828.54 132.345 1824.26 132.849 1820.48 133.857C1816.82 134.74 1813.42 136.063 1810.27 137.828C1807.11 139.593 1804.09 141.798 1801.19 144.445C1798.29 147.092 1795.33 150.181 1792.3 153.71L1786.82 147.849C1790.98 142.177 1795.64 136.189 1800.81 129.887C1806.11 123.584 1811.78 117.849 1817.83 112.681C1824.01 107.513 1830.56 103.228 1837.5 99.824C1844.55 96.4206 1851.93 94.7191 1859.62 94.7191H1941.31C1944.59 94.7191 1948.24 94.53 1952.27 94.1519C1956.44 93.7738 1960.6 93.1433 1964.76 92.2609C1968.92 91.379 1972.83 90.2442 1976.48 88.8579C1980.26 87.345 1983.41 85.4545 1985.93 83.1858L1990.47 88.2907Z" fill="black"/>
</g>
<g filter="url(#filter2_d)">
<path d="M1451.69 317.643L1398.03 404.661C1385.93 402.526 1374.71 400.657 1364.39 399.056C1354.25 397.454 1344.19 395.942 1334.23 394.518C1324.44 393.272 1314.38 391.938 1304.06 390.514C1293.74 389.091 1282.62 387.4 1270.69 385.443C1266.07 384.553 1261.44 383.93 1256.81 383.574C1252.36 383.04 1247.82 382.773 1243.19 382.773C1233.41 382.773 1223.97 384.108 1214.9 386.778C1206 389.447 1197.46 393.629 1189.27 399.323L1181 390.514C1184.73 387.311 1187.93 383.485 1190.6 379.036C1193.27 374.588 1195.5 369.872 1197.28 364.889C1199.24 359.728 1200.66 354.568 1201.55 349.407C1202.44 344.247 1202.89 339.353 1202.89 334.727V177.24C1202.89 152.326 1207.25 129.104 1215.97 107.572C1224.69 86.0394 1236.7 67.3548 1252.01 51.5169C1267.49 35.5013 1285.64 22.9557 1306.46 13.8802C1327.46 4.62673 1350.16 0 1374.54 0C1382.37 0 1389.93 0.889759 1397.23 2.66926C1404.52 4.44879 1410.94 7.29601 1416.45 11.2109C1422.15 15.1259 1426.69 20.1975 1430.07 26.4258C1433.45 32.6541 1435.14 40.306 1435.14 49.3813C1435.14 57.3895 1433.62 65.1303 1430.6 72.6041C1427.57 80.078 1423.39 87.196 1418.05 93.9583C1412.89 100.721 1406.84 107.038 1399.9 112.91C1393.13 118.605 1386.02 123.765 1378.54 128.392C1371.07 133.019 1363.42 136.934 1355.58 140.137C1347.75 143.34 1340.37 145.831 1333.43 147.611L1329.15 137.467C1335.21 133.908 1341.44 129.816 1347.84 125.189C1354.43 120.562 1360.39 115.491 1365.73 109.974C1371.07 104.279 1375.43 98.1403 1378.81 91.5562C1382.19 84.7939 1383.88 77.4977 1383.88 69.6681C1383.88 63.4397 1382.72 57.7453 1380.41 52.5847C1378.1 47.2461 1374.89 42.7083 1370.8 38.9713C1366.89 35.2344 1362.26 32.2982 1356.92 30.1628C1351.76 28.0273 1346.15 26.9597 1340.1 26.9597C1326.75 26.9597 1315.01 29.8069 1304.86 35.5013C1294.72 41.1957 1286.18 48.6697 1279.23 57.9229C1272.29 67.1767 1267.05 77.6758 1263.48 89.4205C1259.92 101.165 1258.14 113.088 1258.14 125.189V297.09C1258.14 303.852 1257.17 310.436 1255.21 316.842C1253.25 323.071 1250.58 329.121 1247.2 334.994C1244 340.688 1240.17 346.116 1235.72 351.276C1231.27 356.437 1226.56 361.153 1221.57 365.423C1227.27 361.33 1232.78 357.593 1238.12 354.212C1243.46 350.653 1248.89 347.628 1254.41 345.137C1260.1 342.645 1265.97 340.777 1272.03 339.531C1278.08 338.108 1284.75 337.396 1292.05 337.396C1300.95 337.396 1308.87 337.841 1315.81 338.731C1322.75 339.62 1329.51 340.599 1336.1 341.667C1342.86 342.556 1349.71 343.446 1356.65 344.336C1363.59 345.226 1371.51 345.671 1380.41 345.671C1386.64 345.671 1392.6 344.781 1398.3 343.001C1404.17 341.044 1409.69 338.464 1414.85 335.261C1420.01 332.057 1424.82 328.409 1429.26 324.316C1433.89 320.045 1438.08 315.508 1441.81 310.703L1451.69 317.643Z" fill="black"/>
</g>
<defs>
<filter id="filter0_d" x="0" y="122.342" width="1131.71" height="281.333" filterUnits="userSpaceOnUse" color-interpolation-filters="sRGB">
<feFlood flood-opacity="0" result="BackgroundImageFix"/>
<feColorMatrix in="SourceAlpha" type="matrix" values="0 0 0 0 0 0 0 0 0 0 0 0 0 0 0 0 0 0 127 0" result="hardAlpha"/>
<feOffset dy="4"/>
<feGaussianBlur stdDeviation="2"/>
<feColorMatrix type="matrix" values="0 0 0 0 0.841667 0 0 0 0 0.841667 0 0 0 0 0.841667 0 0 0 1 0"/>
<feBlend mode="normal" in2="BackgroundImageFix" result="effect1_dropShadow"/>
<feBlend mode="normal" in="SourceGraphic" in2="effect1_dropShadow" result="shape"/>
</filter>
<filter id="filter1_d" x="1499.93" y="83.1858" width="494.537" height="296.526" filterUnits="userSpaceOnUse" color-interpolation-filters="sRGB">
<feFlood flood-opacity="0" result="BackgroundImageFix"/>
<feColorMatrix in="SourceAlpha" type="matrix" values="0 0 0 0 0 0 0 0 0 0 0 0 0 0 0 0 0 0 127 0" result="hardAlpha"/>
<feOffset dy="4"/>
<feGaussianBlur stdDeviation="2"/>
<feColorMatrix type="matrix" values="0 0 0 0 0.841667 0 0 0 0 0.841667 0 0 0 0 0.841667 0 0 0 1 0"/>
<feBlend mode="normal" in2="BackgroundImageFix" result="effect1_dropShadow"/>
<feBlend mode="normal" in="SourceGraphic" in2="effect1_dropShadow" result="shape"/>
</filter>
<filter id="filter2_d" x="1177" y="0" width="278.694" height="412.661" filterUnits="userSpaceOnUse" color-interpolation-filters="sRGB">
<feFlood flood-opacity="0" result="BackgroundImageFix"/>
<feColorMatrix in="SourceAlpha" type="matrix" values="0 0 0 0 0 0 0 0 0 0 0 0 0 0 0 0 0 0 127 0" result="hardAlpha"/>
<feOffset dy="4"/>
<feGaussianBlur stdDeviation="2"/>
<feColorMatrix type="matrix" values="0 0 0 0 0.841667 0 0 0 0 0.841667 0 0 0 0 0.841667 0 0 0 1 0"/>
<feBlend mode="normal" in2="BackgroundImageFix" result="effect1_dropShadow"/>
<feBlend mode="normal" in="SourceGraphic" in2="effect1_dropShadow" result="shape"/>
</filter>
</defs>
</svg>
